<?xml version="1.0" standalone="no"?>
<svg xmlns="http://www.w3.org/2000/svg" width="500" height="500"><defs><clipPath id="clip-path-dot-color"><path d="M 19 145v 14h 14v -7a 7 7, 0, 0, 0, -7 -7" transform="rotate(-90,26,152)"/><path d="M 19 159v 14h 14v -7a 7 7, 0, 0, 0, -7 -7" transform="rotate(180,26,166)"/><path d="M 19 187v 14h 7a 7 7, 0, 0, 0, 0 -14" transform="rotate(180,26,194)"/><circle cx="26" cy="222" r="7" transform="rotate(0,26,222)"/><path d="M 19 243v 14h 7a 7 7, 0, 0, 0, 0 -14" transform="rotate(180,26,250)"/><path d="M 19 271v 14h 7a 7 7, 0, 0, 0, 0 -14" transform="rotate(-90,26,278)"/><rect x="19" y="285" width="14" height="14" transform="rotate(0,26,292)"/><rect x="19" y="299" width="14" height="14" transform="rotate(0,26,306)"/><path d="M 19 313v 14h 14v -7a 7 7, 0, 0, 0, -7 -7" transform="rotate(180,26,320)"/><path d="M 19 341v 14h 14v -7a 7 7, 0, 0, 0, -7 -7" transform="rotate(-90,26,348)"/><path d="M 19 355v 14h 14v -7a 7 7, 0, 0, 0, -7 -7" transform="rotate(180,26,362)"/><path d="M 33 131v 14h 14v -7a 7 7, 0, 0, 0, -7 -7" transform="rotate(-90,40,138)"/><rect x="33" y="145" width="14" height="14" transform="rotate(0,40,152)"/><rect x="33" y="159" width="14" height="14" transform="rotate(0,40,166)"/><rect x="33" y="187" width="14" height="14" transform="rotate(0,40,194)"/><path d="M 33 201v 14h 14v -7a 7 7, 0, 0, 0, -7 -7" transform="rotate(180,40,208)"/><path d="M 33 229v 14h 14v -7a 7 7, 0, 0, 0, -7 -7" transform="rotate(-90,40,236)"/><rect x="33" y="243" width="14" height="14" transform="rotate(0,40,250)"/><path d="M 33 257v 14h 7a 7 7, 0, 0, 0, 0 -14" transform="rotate(90,40,264)"/><rect x="33" y="299" width="14" height="14" transform="rotate(0,40,306)"/><rect x="33" y="313" width="14" height="14" transform="rotate(0,40,320)"/><rect x="33" y="327" width="14" height="14" transform="rotate(0,40,334)"/><rect x="33" y="341" width="14" height="14" transform="rotate(0,40,348)"/><path d="M 33 355v 14h 14v -7a 7 7, 0, 0, 0, -7 -7" transform="rotate(90,40,362)"/><path d="M 47 131v 14h 14v -7a 7 7, 0, 0, 0, -7 -7" transform="rotate(0,54,138)"/><rect x="47" y="145" width="14" height="14" transform="rotate(0,54,152)"/><rect x="47" y="159" width="14" height="14" transform="rotate(0,54,166)"/><path d="M 47 187v 14h 14v -7a 7 7, 0, 0, 0, -7 -7" transform="rotate(0,54,194)"/><rect x="47" y="201" width="14" height="14" transform="rotate(0,54,208)"/><rect x="47" y="215" width="14" height="14" transform="rotate(0,54,222)"/><path d="M 47 229v 14h 14v -7a 7 7, 0, 0, 0, -7 -7" transform="rotate(90,54,236)"/><path d="M 47 271v 14h 7a 7 7, 0, 0, 0, 0 -14" transform="rotate(180,54,278)"/><path d="M 47 299v 14h 7a 7 7, 0, 0, 0, 0 -14" transform="rotate(0,54,306)"/><path d="M 47 341v 14h 7a 7 7, 0, 0, 0, 0 -14" transform="rotate(0,54,348)"/><rect x="61" y="159" width="14" height="14" transform="rotate(0,68,166)"/><path d="M 61 201v 14h 7a 7 7, 0, 0, 0, 0 -14" transform="rotate(0,68,208)"/><circle cx="68" cy="250" r="7" transform="rotate(0,68,250)"/><rect x="61" y="271" width="14" height="14" transform="rotate(0,68,278)"/><path d="M 61 285v 14h 7a 7 7, 0, 0, 0, 0 -14" transform="rotate(90,68,292)"/><path d="M 61 313v 14h 7a 7 7, 0, 0, 0, 0 -14" transform="rotate(180,68,320)"/><path d="M 61 355v 14h 7a 7 7, 0, 0, 0, 0 -14" transform="rotate(180,68,362)"/><rect x="75" y="159" width="14" height="14" transform="rotate(0,82,166)"/><rect x="75" y="173" width="14" height="14" transform="rotate(0,82,180)"/><path d="M 75 187v 14h 7a 7 7, 0, 0, 0, 0 -14" transform="rotate(90,82,194)"/><path d="M 75 215v 14h 7a 7 7, 0, 0, 0, 0 -14" transform="rotate(-90,82,222)"/><path d="M 75 229v 14h 7a 7 7, 0, 0, 0, 0 -14" transform="rotate(90,82,236)"/><path d="M 75 257v 14h 14v -7a 7 7, 0, 0, 0, -7 -7" transform="rotate(-90,82,264)"/><path d="M 75 271v 14h 14v -7a 7 7, 0, 0, 0, -7 -7" transform="rotate(90,82,278)"/><rect x="75" y="313" width="14" height="14" transform="rotate(0,82,320)"/><path d="M 75 355v 14h 7a 7 7, 0, 0, 0, 0 -14" transform="rotate(0,82,362)"/><path d="M 89 145v 14h 7a 7 7, 0, 0, 0, 0 -14" transform="rotate(-90,96,152)"/><rect x="89" y="159" width="14" height="14" transform="rotate(0,96,166)"/><path d="M 89 173v 14h 14v -7a 7 7, 0, 0, 0, -7 -7" transform="rotate(90,96,180)"/><circle cx="96" cy="208" r="7" transform="rotate(0,96,208)"/><path d="M 89 257v 14h 7a 7 7, 0, 0, 0, 0 -14" transform="rotate(0,96,264)"/><path d="M 89 313v 14h 7a 7 7, 0, 0, 0, 0 -14" transform="rotate(0,96,320)"/><circle cx="110" cy="138" r="7" transform="rotate(0,110,138)"/><rect x="103" y="159" width="14" height="14" transform="rotate(0,110,166)"/><circle cx="110" cy="194" r="7" transform="rotate(0,110,194)"/><path d="M 103 215v 14h 7a 7 7, 0, 0, 0, 0 -14" transform="rotate(180,110,222)"/><circle cx="110" cy="250" r="7" transform="rotate(0,110,250)"/><path d="M 103 271v 14h 7a 7 7, 0, 0, 0, 0 -14" transform="rotate(180,110,278)"/><circle cx="110" cy="306" r="7" transform="rotate(0,110,306)"/><circle cx="110" cy="334" r="7" transform="rotate(0,110,334)"/><path d="M 103 355v 14h 7a 7 7, 0, 0, 0, 0 -14" transform="rotate(180,110,362)"/><path d="M 117 159v 14h 7a 7 7, 0, 0, 0, 0 -14" transform="rotate(0,124,166)"/><path d="M 117 215v 14h 7a 7 7, 0, 0, 0, 0 -14" transform="rotate(0,124,222)"/><path d="M 117 257v 14h 14v -7a 7 7, 0, 0, 0, -7 -7" transform="rotate(-90,124,264)"/><rect x="117" y="271" width="14" height="14" transform="rotate(0,124,278)"/><path d="M 117 285v 14h 7a 7 7, 0, 0, 0, 0 -14" transform="rotate(90,124,292)"/><path d="M 117 341v 14h 14v -7a 7 7, 0, 0, 0, -7 -7" transform="rotate(-90,124,348)"/><rect x="117" y="355" width="14" height="14" transform="rotate(0,124,362)"/><path d="M 131 33v 14h 14v -7a 7 7, 0, 0, 0, -7 -7" transform="rotate(-90,138,40)"/><rect x="131" y="47" width="14" height="14" transform="rotate(0,138,54)"/><path d="M 131 61v 14h 7a 7 7, 0, 0, 0, 0 -14" transform="rotate(90,138,68)"/><path d="M 131 89v 14h 7a 7 7, 0, 0, 0, 0 -14" transform="rotate(-90,138,96)"/><path d="M 131 103v 14h 7a 7 7, 0, 0, 0, 0 -14" transform="rotate(90,138,110)"/><circle cx="138" cy="180" r="7" transform="rotate(0,138,180)"/><path d="M 131 201v 14h 7a 7 7, 0, 0, 0, 0 -14" transform="rotate(180,138,208)"/><path d="M 131 229v 14h 7a 7 7, 0, 0, 0, 0 -14" transform="rotate(-90,138,236)"/><rect x="131" y="243" width="14" height="14" transform="rotate(0,138,250)"/><rect x="131" y="257" width="14" height="14" transform="rotate(0,138,264)"/><rect x="131" y="271" width="14" height="14" transform="rotate(0,138,278)"/><circle cx="138" cy="320" r="7" transform="rotate(0,138,320)"/><rect x="131" y="341" width="14" height="14" transform="rotate(0,138,348)"/><path d="M 131 355v 14h 14v -7a 7 7, 0, 0, 0, -7 -7" transform="rotate(90,138,362)"/><path d="M 131 439v 14h 14v -7a 7 7, 0, 0, 0, -7 -7" transform="rotate(-90,138,446)"/><path d="M 131 453v 14h 7a 7 7, 0, 0, 0, 0 -14" transform="rotate(90,138,460)"/><path d="M 145 19v 14h 14v -7a 7 7, 0, 0, 0, -7 -7" transform="rotate(-90,152,26)"/><rect x="145" y="33" width="14" height="14" transform="rotate(0,152,40)"/><path d="M 145 131v 14h 7a 7 7, 0, 0, 0, 0 -14" transform="rotate(-90,152,138)"/><rect x="145" y="145" width="14" height="14" transform="rotate(0,152,152)"/><path d="M 145 159v 14h 7a 7 7, 0, 0, 0, 0 -14" transform="rotate(90,152,166)"/><rect x="145" y="201" width="14" height="14" transform="rotate(0,152,208)"/><path d="M 145 215v 14h 14v -7a 7 7, 0, 0, 0, -7 -7" transform="rotate(180,152,222)"/><rect x="145" y="243" width="14" height="14" transform="rotate(0,152,250)"/><rect x="145" y="257" width="14" height="14" transform="rotate(0,152,264)"/><rect x="145" y="271" width="14" height="14" transform="rotate(0,152,278)"/><path d="M 145 285v 14h 7a 7 7, 0, 0, 0, 0 -14" transform="rotate(90,152,292)"/><rect x="145" y="341" width="14" height="14" transform="rotate(0,152,348)"/><path d="M 145 383v 14h 14v -7a 7 7, 0, 0, 0, -7 -7" transform="rotate(-90,152,390)"/><path d="M 145 397v 14h 14v -7a 7 7, 0, 0, 0, -7 -7" transform="rotate(180,152,404)"/><path d="M 145 425v 14h 14v -7a 7 7, 0, 0, 0, -7 -7" transform="rotate(-90,152,432)"/><path d="M 145 439v 14h 14v -7a 7 7, 0, 0, 0, -7 -7" transform="rotate(90,152,446)"/><path d="M 145 467v 14h 7a 7 7, 0, 0, 0, 0 -14" transform="rotate(180,152,474)"/><rect x="159" y="19" width="14" height="14" transform="rotate(0,166,26)"/><rect x="159" y="33" width="14" height="14" transform="rotate(0,166,40)"/><path d="M 159 61v 14h 14v -7a 7 7, 0, 0, 0, -7 -7" transform="rotate(-90,166,68)"/><path d="M 159 75v 14h 7a 7 7, 0, 0, 0, 0 -14" transform="rotate(90,166,82)"/><path d="M 159 103v 14h 7a 7 7, 0, 0, 0, 0 -14" transform="rotate(-90,166,110)"/><path d="M 159 117v 14h 7a 7 7, 0, 0, 0, 0 -14" transform="rotate(90,166,124)"/><circle cx="166" cy="180" r="7" transform="rotate(0,166,180)"/><rect x="159" y="201" width="14" height="14" transform="rotate(0,166,208)"/><rect x="159" y="215" width="14" height="14" transform="rotate(0,166,222)"/><rect x="159" y="243" width="14" height="14" transform="rotate(0,166,250)"/><path d="M 159 271v 14h 7a 7 7, 0, 0, 0, 0 -14" transform="rotate(0,166,278)"/><path d="M 159 313v 14h 14v -7a 7 7, 0, 0, 0, -7 -7" transform="rotate(-90,166,320)"/><rect x="159" y="327" width="14" height="14" transform="rotate(0,166,334)"/><rect x="159" y="341" width="14" height="14" transform="rotate(0,166,348)"/><path d="M 159 355v 14h 14v -7a 7 7, 0, 0, 0, -7 -7" transform="rotate(180,166,362)"/><path d="M 159 383v 14h 14v -7a 7 7, 0, 0, 0, -7 -7" transform="rotate(0,166,390)"/><rect x="159" y="397" width="14" height="14" transform="rotate(0,166,404)"/><rect x="159" y="411" width="14" height="14" transform="rotate(0,166,418)"/><rect x="159" y="425" width="14" height="14" transform="rotate(0,166,432)"/><path d="M 159 453v 14h 7a 7 7, 0, 0, 0, 0 -14" transform="rotate(-90,166,460)"/><rect x="159" y="467" width="14" height="14" transform="rotate(0,166,474)"/><rect x="173" y="19" width="14" height="14" transform="rotate(0,180,26)"/><rect x="173" y="33" width="14" height="14" transform="rotate(0,180,40)"/><rect x="173" y="47" width="14" height="14" transform="rotate(0,180,54)"/><rect x="173" y="61" width="14" height="14" transform="rotate(0,180,68)"/><path d="M 173 131v 14h 7a 7 7, 0, 0, 0, 0 -14" transform="rotate(180,180,138)"/><rect x="173" y="201" width="14" height="14" transform="rotate(0,180,208)"/><path d="M 173 215v 14h 14v -7a 7 7, 0, 0, 0, -7 -7" transform="rotate(90,180,222)"/><rect x="173" y="243" width="14" height="14" transform="rotate(0,180,250)"/><path d="M 173 257v 14h 7a 7 7, 0, 0, 0, 0 -14" transform="rotate(90,180,264)"/><path d="M 173 285v 14h 7a 7 7, 0, 0, 0, 0 -14" transform="rotate(-90,180,292)"/><rect x="173" y="299" width="14" height="14" transform="rotate(0,180,306)"/><rect x="173" y="313" width="14" height="14" transform="rotate(0,180,320)"/><rect x="173" y="327" width="14" height="14" transform="rotate(0,180,334)"/><rect x="173" y="355" width="14" height="14" transform="rotate(0,180,362)"/><path d="M 173 369v 14h 14v -7a 7 7, 0, 0, 0, -7 -7" transform="rotate(180,180,376)"/><path d="M 173 397v 14h 7a 7 7, 0, 0, 0, 0 -14" transform="rotate(0,180,404)"/><rect x="173" y="425" width="14" height="14" transform="rotate(0,180,432)"/><rect x="173" y="467" width="14" height="14" transform="rotate(0,180,474)"/><path d="M 187 19v 14h 14v -7a 7 7, 0, 0, 0, -7 -7" transform="rotate(0,194,26)"/><rect x="187" y="33" width="14" height="14" transform="rotate(0,194,40)"/><path d="M 187 61v 14h 7a 7 7, 0, 0, 0, 0 -14" transform="rotate(0,194,68)"/><circle cx="194" cy="110" r="7" transform="rotate(0,194,110)"/><path d="M 187 131v 14h 14v -7a 7 7, 0, 0, 0, -7 -7" transform="rotate(0,194,138)"/><path d="M 187 145v 14h 7a 7 7, 0, 0, 0, 0 -14" transform="rotate(90,194,152)"/><circle cx="194" cy="180" r="7" transform="rotate(0,194,180)"/><rect x="187" y="201" width="14" height="14" transform="rotate(0,194,208)"/><rect x="187" y="243" width="14" height="14" transform="rotate(0,194,250)"/><rect x="187" y="299" width="14" height="14" transform="rotate(0,194,306)"/><rect x="187" y="313" width="14" height="14" transform="rotate(0,194,320)"/><rect x="187" y="327" width="14" height="14" transform="rotate(0,194,334)"/><rect x="187" y="341" width="14" height="14" transform="rotate(0,194,348)"/><rect x="187" y="355" width="14" height="14" transform="rotate(0,194,362)"/><rect x="187" y="369" width="14" height="14" transform="rotate(0,194,376)"/><path d="M 187 425v 14h 7a 7 7, 0, 0, 0, 0 -14" transform="rotate(0,194,432)"/><path d="M 187 453v 14h 14v -7a 7 7, 0, 0, 0, -7 -7" transform="rotate(-90,194,460)"/><path d="M 187 467v 14h 14v -7a 7 7, 0, 0, 0, -7 -7" transform="rotate(90,194,474)"/><path d="M 201 33v 14h 14v -7a 7 7, 0, 0, 0, -7 -7" transform="rotate(0,208,40)"/><path d="M 201 47v 14h 7a 7 7, 0, 0, 0, 0 -14" transform="rotate(90,208,54)"/><path d="M 201 75v 14h 7a 7 7, 0, 0, 0, 0 -14" transform="rotate(-90,208,82)"/><path d="M 201 89v 14h 14v -7a 7 7, 0, 0, 0, -7 -7" transform="rotate(180,208,96)"/><path d="M 201 201v 14h 7a 7 7, 0, 0, 0, 0 -14" transform="rotate(0,208,208)"/><path d="M 201 229v 14h 14v -7a 7 7, 0, 0, 0, -7 -7" transform="rotate(-90,208,236)"/><path d="M 201 243v 14h 14v -7a 7 7, 0, 0, 0, -7 -7" transform="rotate(90,208,250)"/><rect x="201" y="299" width="14" height="14" transform="rotate(0,208,306)"/><rect x="201" y="313" width="14" height="14" transform="rotate(0,208,320)"/><path d="M 201 341v 14h 14v -7a 7 7, 0, 0, 0, -7 -7" transform="rotate(0,208,348)"/><rect x="201" y="355" width="14" height="14" transform="rotate(0,208,362)"/><path d="M 201 369v 14h 14v -7a 7 7, 0, 0, 0, -7 -7" transform="rotate(90,208,376)"/><circle cx="208" cy="404" r="7" transform="rotate(0,208,404)"/><path d="M 201 453v 14h 7a 7 7, 0, 0, 0, 0 -14" transform="rotate(0,208,460)"/><path d="M 215 19v 14h 7a 7 7, 0, 0, 0, 0 -14" transform="rotate(180,222,26)"/><path d="M 215 61v 14h 7a 7 7, 0, 0, 0, 0 -14" transform="rotate(180,222,68)"/><rect x="215" y="89" width="14" height="14" transform="rotate(0,222,96)"/><path d="M 215 103v 14h 7a 7 7, 0, 0, 0, 0 -14" transform="rotate(90,222,110)"/><path d="M 215 131v 14h 7a 7 7, 0, 0, 0, 0 -14" transform="rotate(180,222,138)"/><path d="M 215 187v 14h 7a 7 7, 0, 0, 0, 0 -14" transform="rotate(180,222,194)"/><rect x="215" y="229" width="14" height="14" transform="rotate(0,222,236)"/><circle cx="222" cy="264" r="7" transform="rotate(0,222,264)"/><path d="M 215 285v 14h 7a 7 7, 0, 0, 0, 0 -14" transform="rotate(-90,222,292)"/><rect x="215" y="299" width="14" height="14" transform="rotate(0,222,306)"/><rect x="215" y="313" width="14" height="14" transform="rotate(0,222,320)"/><path d="M 215 383v 14h 7a 7 7, 0, 0, 0, 0 -14" transform="rotate(180,222,390)"/><circle cx="222" cy="432" r="7" transform="rotate(0,222,432)"/><path d="M 229 19v 14h 14v -7a 7 7, 0, 0, 0, -7 -7" transform="rotate(0,236,26)"/><rect x="229" y="33" width="14" height="14" transform="rotate(0,236,40)"/><rect x="229" y="47" width="14" height="14" transform="rotate(0,236,54)"/><rect x="229" y="61" width="14" height="14" transform="rotate(0,236,68)"/><rect x="229" y="75" width="14" height="14" transform="rotate(0,236,82)"/><path d="M 229 89v 14h 14v -7a 7 7, 0, 0, 0, -7 -7" transform="rotate(90,236,96)"/><path d="M 229 117v 14h 7a 7 7, 0, 0, 0, 0 -14" transform="rotate(-90,236,124)"/><rect x="229" y="131" width="14" height="14" transform="rotate(0,236,138)"/><rect x="229" y="145" width="14" height="14" transform="rotate(0,236,152)"/><rect x="229" y="159" width="14" height="14" transform="rotate(0,236,166)"/><rect x="229" y="173" width="14" height="14" transform="rotate(0,236,180)"/><rect x="229" y="187" width="14" height="14" transform="rotate(0,236,194)"/><rect x="229" y="201" width="14" height="14" transform="rotate(0,236,208)"/><rect x="229" y="215" width="14" height="14" transform="rotate(0,236,222)"/><rect x="229" y="229" width="14" height="14" transform="rotate(0,236,236)"/><path d="M 229 243v 14h 7a 7 7, 0, 0, 0, 0 -14" transform="rotate(90,236,250)"/><rect x="229" y="313" width="14" height="14" transform="rotate(0,236,320)"/><path d="M 229 327v 14h 14v -7a 7 7, 0, 0, 0, -7 -7" transform="rotate(180,236,334)"/><path d="M 229 355v 14h 7a 7 7, 0, 0, 0, 0 -14" transform="rotate(-90,236,362)"/><rect x="229" y="369" width="14" height="14" transform="rotate(0,236,376)"/><rect x="229" y="383" width="14" height="14" transform="rotate(0,236,390)"/><path d="M 229 397v 14h 7a 7 7, 0, 0, 0, 0 -14" transform="rotate(90,236,404)"/><path d="M 229 439v 14h 7a 7 7, 0, 0, 0, 0 -14" transform="rotate(180,236,446)"/><path d="M 243 47v 14h 14v -7a 7 7, 0, 0, 0, -7 -7" transform="rotate(0,250,54)"/><path d="M 243 61v 14h 14v -7a 7 7, 0, 0, 0, -7 -7" transform="rotate(90,250,68)"/><circle cx="250" cy="110" r="7" transform="rotate(0,250,110)"/><path d="M 243 145v 14h 7a 7 7, 0, 0, 0, 0 -14" transform="rotate(0,250,152)"/><rect x="243" y="229" width="14" height="14" transform="rotate(0,250,236)"/><circle cx="250" cy="264" r="7" transform="rotate(0,250,264)"/><path d="M 243 299v 14h 14v -7a 7 7, 0, 0, 0, -7 -7" transform="rotate(-90,250,306)"/><rect x="243" y="313" width="14" height="14" transform="rotate(0,250,320)"/><rect x="243" y="327" width="14" height="14" transform="rotate(0,250,334)"/><rect x="243" y="369" width="14" height="14" transform="rotate(0,250,376)"/><rect x="243" y="383" width="14" height="14" transform="rotate(0,250,390)"/><path d="M 243 411v 14h 14v -7a 7 7, 0, 0, 0, -7 -7" transform="rotate(-90,250,418)"/><rect x="243" y="425" width="14" height="14" transform="rotate(0,250,432)"/><path d="M 243 439v 14h 14v -7a 7 7, 0, 0, 0, -7 -7" transform="rotate(90,250,446)"/><path d="M 257 19v 14h 14v -7a 7 7, 0, 0, 0, -7 -7" transform="rotate(-90,264,26)"/><path d="M 257 33v 14h 14v -7a 7 7, 0, 0, 0, -7 -7" transform="rotate(180,264,40)"/><path d="M 257 117v 14h 7a 7 7, 0, 0, 0, 0 -14" transform="rotate(-90,264,124)"/><path d="M 257 131v 14h 7a 7 7, 0, 0, 0, 0 -14" transform="rotate(90,264,138)"/><path d="M 257 159v 14h 7a 7 7, 0, 0, 0, 0 -14" transform="rotate(-90,264,166)"/><rect x="257" y="173" width="14" height="14" transform="rotate(0,264,180)"/><path d="M 257 187v 14h 14v -7a 7 7, 0, 0, 0, -7 -7" transform="rotate(180,264,194)"/><rect x="257" y="229" width="14" height="14" transform="rotate(0,264,236)"/><path d="M 257 243v 14h 7a 7 7, 0, 0, 0, 0 -14" transform="rotate(90,264,250)"/><circle cx="264" cy="278" r="7" transform="rotate(0,264,278)"/><rect x="257" y="299" width="14" height="14" transform="rotate(0,264,306)"/><path d="M 257 327v 14h 14v -7a 7 7, 0, 0, 0, -7 -7" transform="rotate(0,264,334)"/><rect x="257" y="341" width="14" height="14" transform="rotate(0,264,348)"/><rect x="257" y="355" width="14" height="14" transform="rotate(0,264,362)"/><rect x="257" y="369" width="14" height="14" transform="rotate(0,264,376)"/><path d="M 257 383v 14h 14v -7a 7 7, 0, 0, 0, -7 -7" transform="rotate(90,264,390)"/><rect x="257" y="411" width="14" height="14" transform="rotate(0,264,418)"/><path d="M 257 425v 14h 14v -7a 7 7, 0, 0, 0, -7 -7" transform="rotate(90,264,432)"/><path d="M 257 453v 14h 7a 7 7, 0, 0, 0, 0 -14" transform="rotate(-90,264,460)"/><path d="M 257 467v 14h 7a 7 7, 0, 0, 0, 0 -14" transform="rotate(90,264,474)"/><path d="M 271 19v 14h 14v -7a 7 7, 0, 0, 0, -7 -7" transform="rotate(0,278,26)"/><rect x="271" y="33" width="14" height="14" transform="rotate(0,278,40)"/><rect x="271" y="47" width="14" height="14" transform="rotate(0,278,54)"/><path d="M 271 61v 14h 7a 7 7, 0, 0, 0, 0 -14" transform="rotate(90,278,68)"/><path d="M 271 89v 14h 7a 7 7, 0, 0, 0, 0 -14" transform="rotate(-90,278,96)"/><path d="M 271 103v 14h 7a 7 7, 0, 0, 0, 0 -14" transform="rotate(90,278,110)"/><rect x="271" y="187" width="14" height="14" transform="rotate(0,278,194)"/><path d="M 271 201v 14h 7a 7 7, 0, 0, 0, 0 -14" transform="rotate(90,278,208)"/><rect x="271" y="229" width="14" height="14" transform="rotate(0,278,236)"/><circle cx="278" cy="264" r="7" transform="rotate(0,278,264)"/><rect x="271" y="299" width="14" height="14" transform="rotate(0,278,306)"/><path d="M 271 313v 14h 7a 7 7, 0, 0, 0, 0 -14" transform="rotate(90,278,320)"/><path d="M 271 355v 14h 7a 7 7, 0, 0, 0, 0 -14" transform="rotate(0,278,362)"/><path d="M 271 397v 14h 7a 7 7, 0, 0, 0, 0 -14" transform="rotate(-90,278,404)"/><rect x="271" y="411" width="14" height="14" transform="rotate(0,278,418)"/><circle cx="278" cy="446" r="7" transform="rotate(0,278,446)"/><path d="M 285 33v 14h 7a 7 7, 0, 0, 0, 0 -14" transform="rotate(0,292,40)"/><path d="M 285 75v 14h 7a 7 7, 0, 0, 0, 0 -14" transform="rotate(180,292,82)"/><path d="M 285 131v 14h 7a 7 7, 0, 0, 0, 0 -14" transform="rotate(-90,292,138)"/><rect x="285" y="145" width="14" height="14" transform="rotate(0,292,152)"/><path d="M 285 159v 14h 7a 7 7, 0, 0, 0, 0 -14" transform="rotate(90,292,166)"/><path d="M 285 187v 14h 7a 7 7, 0, 0, 0, 0 -14" transform="rotate(0,292,194)"/><path d="M 285 215v 14h 7a 7 7, 0, 0, 0, 0 -14" transform="rotate(-90,292,222)"/><rect x="285" y="229" width="14" height="14" transform="rotate(0,292,236)"/><path d="M 285 243v 14h 7a 7 7, 0, 0, 0, 0 -14" transform="rotate(90,292,250)"/><path d="M 285 285v 14h 14v -7a 7 7, 0, 0, 0, -7 -7" transform="rotate(-90,292,292)"/><path d="M 285 299v 14h 14v -7a 7 7, 0, 0, 0, -7 -7" transform="rotate(90,292,306)"/><path d="M 285 327v 14h 7a 7 7, 0, 0, 0, 0 -14" transform="rotate(180,292,334)"/><path d="M 285 411v 14h 7a 7 7, 0, 0, 0, 0 -14" transform="rotate(0,292,418)"/><path d="M 285 453v 14h 7a 7 7, 0, 0, 0, 0 -14" transform="rotate(-90,292,460)"/><path d="M 285 467v 14h 14v -7a 7 7, 0, 0, 0, -7 -7" transform="rotate(180,292,474)"/><path d="M 299 19v 14h 7a 7 7, 0, 0, 0, 0 -14" transform="rotate(180,306,26)"/><path d="M 299 61v 14h 7a 7 7, 0, 0, 0, 0 -14" transform="rotate(-90,306,68)"/><rect x="299" y="75" width="14" height="14" transform="rotate(0,306,82)"/><path d="M 299 103v 14h 7a 7 7, 0, 0, 0, 0 -14" transform="rotate(-90,306,110)"/><path d="M 299 117v 14h 14v -7a 7 7, 0, 0, 0, -7 -7" transform="rotate(180,306,124)"/><path d="M 299 145v 14h 7a 7 7, 0, 0, 0, 0 -14" transform="rotate(0,306,152)"/><path d="M 299 285v 14h 7a 7 7, 0, 0, 0, 0 -14" transform="rotate(0,306,292)"/><rect x="299" y="327" width="14" height="14" transform="rotate(0,306,334)"/><circle cx="306" cy="404" r="7" transform="rotate(0,306,404)"/><path d="M 299 425v 14h 14v -7a 7 7, 0, 0, 0, -7 -7" transform="rotate(-90,306,432)"/><path d="M 299 439v 14h 7a 7 7, 0, 0, 0, 0 -14" transform="rotate(90,306,446)"/><rect x="299" y="467" width="14" height="14" transform="rotate(0,306,474)"/><path d="M 313 19v 14h 14v -7a 7 7, 0, 0, 0, -7 -7" transform="rotate(0,320,26)"/><rect x="313" y="33" width="14" height="14" transform="rotate(0,320,40)"/><path d="M 313 47v 14h 14v -7a 7 7, 0, 0, 0, -7 -7" transform="rotate(180,320,54)"/><path d="M 313 75v 14h 14v -7a 7 7, 0, 0, 0, -7 -7" transform="rotate(0,320,82)"/><path d="M 313 89v 14h 14v -7a 7 7, 0, 0, 0, -7 -7" transform="rotate(180,320,96)"/><rect x="313" y="117" width="14" height="14" transform="rotate(0,320,124)"/><path d="M 313 159v 14h 7a 7 7, 0, 0, 0, 0 -14" transform="rotate(180,320,166)"/><path d="M 313 201v 14h 7a 7 7, 0, 0, 0, 0 -14" transform="rotate(-90,320,208)"/><rect x="313" y="215" width="14" height="14" transform="rotate(0,320,222)"/><path d="M 313 229v 14h 7a 7 7, 0, 0, 0, 0 -14" transform="rotate(90,320,236)"/><path d="M 313 299v 14h 14v -7a 7 7, 0, 0, 0, -7 -7" transform="rotate(-90,320,306)"/><rect x="313" y="313" width="14" height="14" transform="rotate(0,320,320)"/><rect x="313" y="327" width="14" height="14" transform="rotate(0,320,334)"/><path d="M 313 369v 14h 14v -7a 7 7, 0, 0, 0, -7 -7" transform="rotate(-90,320,376)"/><path d="M 313 383v 14h 14v -7a 7 7, 0, 0, 0, -7 -7" transform="rotate(180,320,390)"/><path d="M 313 425v 14h 7a 7 7, 0, 0, 0, 0 -14" transform="rotate(0,320,432)"/><rect x="313" y="467" width="14" height="14" transform="rotate(0,320,474)"/><rect x="327" y="47" width="14" height="14" transform="rotate(0,334,54)"/><rect x="327" y="89" width="14" height="14" transform="rotate(0,334,96)"/><rect x="327" y="103" width="14" height="14" transform="rotate(0,334,110)"/><rect x="327" y="117" width="14" height="14" transform="rotate(0,334,124)"/><path d="M 327 159v 14h 14v -7a 7 7, 0, 0, 0, -7 -7" transform="rotate(0,334,166)"/><rect x="327" y="173" width="14" height="14" transform="rotate(0,334,180)"/><path d="M 327 187v 14h 14v -7a 7 7, 0, 0, 0, -7 -7" transform="rotate(180,334,194)"/><path d="M 327 243v 14h 14v -7a 7 7, 0, 0, 0, -7 -7" transform="rotate(-90,334,250)"/><path d="M 327 257v 14h 14v -7a 7 7, 0, 0, 0, -7 -7" transform="rotate(180,334,264)"/><path d="M 327 285v 14h 7a 7 7, 0, 0, 0, 0 -14" transform="rotate(-90,334,292)"/><rect x="327" y="299" width="14" height="14" transform="rotate(0,334,306)"/><rect x="327" y="313" width="14" height="14" transform="rotate(0,334,320)"/><rect x="327" y="327" width="14" height="14" transform="rotate(0,334,334)"/><path d="M 327 341v 14h 14v -7a 7 7, 0, 0, 0, -7 -7" transform="rotate(180,334,348)"/><rect x="327" y="369" width="14" height="14" transform="rotate(0,334,376)"/><rect x="327" y="383" width="14" height="14" transform="rotate(0,334,390)"/><path d="M 327 397v 14h 14v -7a 7 7, 0, 0, 0, -7 -7" transform="rotate(180,334,404)"/><path d="M 327 439v 14h 7a 7 7, 0, 0, 0, 0 -14" transform="rotate(-90,334,446)"/><rect x="327" y="453" width="14" height="14" transform="rotate(0,334,460)"/><path d="M 327 467v 14h 14v -7a 7 7, 0, 0, 0, -7 -7" transform="rotate(90,334,474)"/><path d="M 341 33v 14h 7a 7 7, 0, 0, 0, 0 -14" transform="rotate(-90,348,40)"/><rect x="341" y="47" width="14" height="14" transform="rotate(0,348,54)"/><path d="M 341 75v 14h 14v -7a 7 7, 0, 0, 0, -7 -7" transform="rotate(-90,348,82)"/><path d="M 341 89v 14h 14v -7a 7 7, 0, 0, 0, -7 -7" transform="rotate(90,348,96)"/><path d="M 341 117v 14h 7a 7 7, 0, 0, 0, 0 -14" transform="rotate(0,348,124)"/><path d="M 341 173v 14h 14v -7a 7 7, 0, 0, 0, -7 -7" transform="rotate(0,348,180)"/><path d="M 341 187v 14h 14v -7a 7 7, 0, 0, 0, -7 -7" transform="rotate(90,348,194)"/><path d="M 341 243v 14h 14v -7a 7 7, 0, 0, 0, -7 -7" transform="rotate(0,348,250)"/><rect x="341" y="257" width="14" height="14" transform="rotate(0,348,264)"/><path d="M 341 271v 14h 14v -7a 7 7, 0, 0, 0, -7 -7" transform="rotate(180,348,278)"/><path d="M 341 299v 14h 7a 7 7, 0, 0, 0, 0 -14" transform="rotate(0,348,306)"/><rect x="341" y="327" width="14" height="14" transform="rotate(0,348,334)"/><path d="M 341 341v 14h 14v -7a 7 7, 0, 0, 0, -7 -7" transform="rotate(90,348,348)"/><rect x="341" y="369" width="14" height="14" transform="rotate(0,348,376)"/><rect x="341" y="383" width="14" height="14" transform="rotate(0,348,390)"/><rect x="341" y="397" width="14" height="14" transform="rotate(0,348,404)"/><circle cx="348" cy="432" r="7" transform="rotate(0,348,432)"/><circle cx="362" cy="26" r="7" transform="rotate(0,362,26)"/><path d="M 355 47v 14h 7a 7 7, 0, 0, 0, 0 -14" transform="rotate(0,362,54)"/><path d="M 355 75v 14h 7a 7 7, 0, 0, 0, 0 -14" transform="rotate(0,362,82)"/><circle cx="362" cy="110" r="7" transform="rotate(0,362,110)"/><path d="M 355 131v 14h 14v -7a 7 7, 0, 0, 0, -7 -7" transform="rotate(-90,362,138)"/><path d="M 355 145v 14h 7a 7 7, 0, 0, 0, 0 -14" transform="rotate(90,362,152)"/><path d="M 355 229v 14h 7a 7 7, 0, 0, 0, 0 -14" transform="rotate(180,362,236)"/><rect x="355" y="257" width="14" height="14" transform="rotate(0,362,264)"/><rect x="355" y="271" width="14" height="14" transform="rotate(0,362,278)"/><path d="M 355 285v 14h 14v -7a 7 7, 0, 0, 0, -7 -7" transform="rotate(180,362,292)"/><path d="M 355 327v 14h 7a 7 7, 0, 0, 0, 0 -14" transform="rotate(0,362,334)"/><path d="M 355 355v 14h 14v -7a 7 7, 0, 0, 0, -7 -7" transform="rotate(-90,362,362)"/><rect x="355" y="369" width="14" height="14" transform="rotate(0,362,376)"/><rect x="355" y="383" width="14" height="14" transform="rotate(0,362,390)"/><rect x="355" y="397" width="14" height="14" transform="rotate(0,362,404)"/><path d="M 355 411v 14h 14v -7a 7 7, 0, 0, 0, -7 -7" transform="rotate(180,362,418)"/><circle cx="362" cy="460" r="7" transform="rotate(0,362,460)"/><path d="M 369 131v 14h 7a 7 7, 0, 0, 0, 0 -14" transform="rotate(0,376,138)"/><path d="M 369 173v 14h 7a 7 7, 0, 0, 0, 0 -14" transform="rotate(-90,376,180)"/><path d="M 369 187v 14h 14v -7a 7 7, 0, 0, 0, -7 -7" transform="rotate(180,376,194)"/><path d="M 369 215v 14h 7a 7 7, 0, 0, 0, 0 -14" transform="rotate(-90,376,222)"/><rect x="369" y="229" width="14" height="14" transform="rotate(0,376,236)"/><path d="M 369 257v 14h 14v -7a 7 7, 0, 0, 0, -7 -7" transform="rotate(0,376,264)"/><rect x="369" y="271" width="14" height="14" transform="rotate(0,376,278)"/><rect x="369" y="285" width="14" height="14" transform="rotate(0,376,292)"/><path d="M 369 313v 14h 7a 7 7, 0, 0, 0, 0 -14" transform="rotate(180,376,320)"/><rect x="369" y="355" width="14" height="14" transform="rotate(0,376,362)"/><rect x="369" y="411" width="14" height="14" transform="rotate(0,376,418)"/><path d="M 369 425v 14h 7a 7 7, 0, 0, 0, 0 -14" transform="rotate(90,376,432)"/><path d="M 383 159v 14h 7a 7 7, 0, 0, 0, 0 -14" transform="rotate(180,390,166)"/><path d="M 383 187v 14h 7a 7 7, 0, 0, 0, 0 -14" transform="rotate(0,390,194)"/><rect x="383" y="229" width="14" height="14" transform="rotate(0,390,236)"/><path d="M 383 271v 14h 14v -7a 7 7, 0, 0, 0, -7 -7" transform="rotate(0,390,278)"/><rect x="383" y="285" width="14" height="14" transform="rotate(0,390,292)"/><rect x="383" y="299" width="14" height="14" transform="rotate(0,390,306)"/><path d="M 383 313v 14h 14v -7a 7 7, 0, 0, 0, -7 -7" transform="rotate(90,390,320)"/><path d="M 383 341v 14h 14v -7a 7 7, 0, 0, 0, -7 -7" transform="rotate(-90,390,348)"/><rect x="383" y="355" width="14" height="14" transform="rotate(0,390,362)"/><circle cx="390" cy="390" r="7" transform="rotate(0,390,390)"/><rect x="383" y="411" width="14" height="14" transform="rotate(0,390,418)"/><path d="M 397 131v 14h 7a 7 7, 0, 0, 0, 0 -14" transform="rotate(-90,404,138)"/><rect x="397" y="145" width="14" height="14" transform="rotate(0,404,152)"/><path d="M 397 159v 14h 14v -7a 7 7, 0, 0, 0, -7 -7" transform="rotate(90,404,166)"/><path d="M 397 215v 14h 14v -7a 7 7, 0, 0, 0, -7 -7" transform="rotate(-90,404,222)"/><rect x="397" y="229" width="14" height="14" transform="rotate(0,404,236)"/><rect x="397" y="243" width="14" height="14" transform="rotate(0,404,250)"/><path d="M 397 257v 14h 7a 7 7, 0, 0, 0, 0 -14" transform="rotate(90,404,264)"/><rect x="397" y="341" width="14" height="14" transform="rotate(0,404,348)"/><rect x="397" y="355" width="14" height="14" transform="rotate(0,404,362)"/><rect x="397" y="411" width="14" height="14" transform="rotate(0,404,418)"/><rect x="397" y="425" width="14" height="14" transform="rotate(0,404,432)"/><rect x="397" y="439" width="14" height="14" transform="rotate(0,404,446)"/><rect x="397" y="453" width="14" height="14" transform="rotate(0,404,460)"/><path d="M 397 467v 14h 7a 7 7, 0, 0, 0, 0 -14" transform="rotate(90,404,474)"/><rect x="411" y="145" width="14" height="14" transform="rotate(0,418,152)"/><path d="M 411 173v 14h 14v -7a 7 7, 0, 0, 0, -7 -7" transform="rotate(-90,418,180)"/><path d="M 411 187v 14h 14v -7a 7 7, 0, 0, 0, -7 -7" transform="rotate(180,418,194)"/><rect x="411" y="215" width="14" height="14" transform="rotate(0,418,222)"/><path d="M 411 229v 14h 14v -7a 7 7, 0, 0, 0, -7 -7" transform="rotate(90,418,236)"/><path d="M 411 285v 14h 7a 7 7, 0, 0, 0, 0 -14" transform="rotate(180,418,292)"/><path d="M 411 327v 14h 14v -7a 7 7, 0, 0, 0, -7 -7" transform="rotate(-90,418,334)"/><rect x="411" y="341" width="14" height="14" transform="rotate(0,418,348)"/><rect x="411" y="355" width="14" height="14" transform="rotate(0,418,362)"/><rect x="411" y="369" width="14" height="14" transform="rotate(0,418,376)"/><rect x="411" y="383" width="14" height="14" transform="rotate(0,418,390)"/><rect x="411" y="397" width="14" height="14" transform="rotate(0,418,404)"/><path d="M 411 411v 14h 14v -7a 7 7, 0, 0, 0, -7 -7" transform="rotate(90,418,418)"/><path d="M 411 439v 14h 14v -7a 7 7, 0, 0, 0, -7 -7" transform="rotate(0,418,446)"/><rect x="411" y="453" width="14" height="14" transform="rotate(0,418,460)"/><path d="M 425 131v 14h 14v -7a 7 7, 0, 0, 0, -7 -7" transform="rotate(-90,432,138)"/><rect x="425" y="145" width="14" height="14" transform="rotate(0,432,152)"/><path d="M 425 173v 14h 14v -7a 7 7, 0, 0, 0, -7 -7" transform="rotate(0,432,180)"/><rect x="425" y="187" width="14" height="14" transform="rotate(0,432,194)"/><rect x="425" y="201" width="14" height="14" transform="rotate(0,432,208)"/><rect x="425" y="215" width="14" height="14" transform="rotate(0,432,222)"/><path d="M 425 243v 14h 14v -7a 7 7, 0, 0, 0, -7 -7" transform="rotate(-90,432,250)"/><rect x="425" y="257" width="14" height="14" transform="rotate(0,432,264)"/><rect x="425" y="271" width="14" height="14" transform="rotate(0,432,278)"/><path d="M 425 285v 14h 14v -7a 7 7, 0, 0, 0, -7 -7" transform="rotate(90,432,292)"/><rect x="425" y="327" width="14" height="14" transform="rotate(0,432,334)"/><rect x="425" y="341" width="14" height="14" transform="rotate(0,432,348)"/><path d="M 425 355v 14h 14v -7a 7 7, 0, 0, 0, -7 -7" transform="rotate(90,432,362)"/><rect x="425" y="397" width="14" height="14" transform="rotate(0,432,404)"/><path d="M 425 453v 14h 14v -7a 7 7, 0, 0, 0, -7 -7" transform="rotate(0,432,460)"/><path d="M 425 467v 14h 7a 7 7, 0, 0, 0, 0 -14" transform="rotate(90,432,474)"/><rect x="439" y="131" width="14" height="14" transform="rotate(0,446,138)"/><rect x="439" y="145" width="14" height="14" transform="rotate(0,446,152)"/><path d="M 439 187v 14h 14v -7a 7 7, 0, 0, 0, -7 -7" transform="rotate(0,446,194)"/><rect x="439" y="201" width="14" height="14" transform="rotate(0,446,208)"/><rect x="439" y="215" width="14" height="14" transform="rotate(0,446,222)"/><rect x="439" y="229" width="14" height="14" transform="rotate(0,446,236)"/><rect x="439" y="243" width="14" height="14" transform="rotate(0,446,250)"/><rect x="439" y="257" width="14" height="14" transform="rotate(0,446,264)"/><path d="M 439 299v 14h 7a 7 7, 0, 0, 0, 0 -14" transform="rotate(180,446,306)"/><path d="M 439 327v 14h 14v -7a 7 7, 0, 0, 0, -7 -7" transform="rotate(0,446,334)"/><path d="M 439 341v 14h 14v -7a 7 7, 0, 0, 0, -7 -7" transform="rotate(90,446,348)"/><path d="M 439 383v 14h 7a 7 7, 0, 0, 0, 0 -14" transform="rotate(-90,446,390)"/><rect x="439" y="397" width="14" height="14" transform="rotate(0,446,404)"/><path d="M 439 425v 14h 7a 7 7, 0, 0, 0, 0 -14" transform="rotate(-90,446,432)"/><path d="M 439 439v 14h 7a 7 7, 0, 0, 0, 0 -14" transform="rotate(90,446,446)"/><path d="M 453 131v 14h 14v -7a 7 7, 0, 0, 0, -7 -7" transform="rotate(0,460,138)"/><path d="M 453 145v 14h 14v -7a 7 7, 0, 0, 0, -7 -7" transform="rotate(90,460,152)"/><circle cx="460" cy="180" r="7" transform="rotate(0,460,180)"/><rect x="453" y="201" width="14" height="14" transform="rotate(0,460,208)"/><rect x="453" y="215" width="14" height="14" transform="rotate(0,460,222)"/><path d="M 453 257v 14h 7a 7 7, 0, 0, 0, 0 -14" transform="rotate(0,460,264)"/><path d="M 453 299v 14h 7a 7 7, 0, 0, 0, 0 -14" transform="rotate(0,460,306)"/><circle cx="460" cy="362" r="7" transform="rotate(0,460,362)"/><path d="M 453 397v 14h 14v -7a 7 7, 0, 0, 0, -7 -7" transform="rotate(0,460,404)"/><path d="M 453 411v 14h 14v -7a 7 7, 0, 0, 0, -7 -7" transform="rotate(180,460,418)"/><circle cx="460" cy="474" r="7" transform="rotate(0,460,474)"/><circle cx="474" cy="166" r="7" transform="rotate(0,474,166)"/><path d="M 467 201v 14h 14v -7a 7 7, 0, 0, 0, -7 -7" transform="rotate(0,474,208)"/><path d="M 467 215v 14h 14v -7a 7 7, 0, 0, 0, -7 -7" transform="rotate(90,474,222)"/><circle cx="474" cy="292" r="7" transform="rotate(0,474,292)"/><circle cx="474" cy="320" r="7" transform="rotate(0,474,320)"/><path d="M 467 369v 14h 7a 7 7, 0, 0, 0, 0 -14" transform="rotate(-90,474,376)"/><path d="M 467 383v 14h 7a 7 7, 0, 0, 0, 0 -14" transform="rotate(90,474,390)"/><path d="M 467 411v 14h 7a 7 7, 0, 0, 0, 0 -14" transform="rotate(0,474,418)"/></clipPath><clipPath id="clip-path-corners-square-color-0-0"><path clip-rule="evenodd" d="M 19 54v 28a 35 35, 0, 0, 0, 35 35h 28a 35 35, 0, 0, 0, 35 -35v -28a 35 35, 0, 0, 0, -35 -35h -28a 35 35, 0, 0, 0, -35 35M 54 33h 28a 21 21, 0, 0, 1, 21 21v 28a 21 21, 0, 0, 1, -21 21h -28a 21 21, 0, 0, 1, -21 -21v -28a 21 21, 0, 0, 1, 21 -21" transform="rotate(0,68,68)"/></clipPath><clipPath id="clip-path-corners-dot-color-0-0"><circle cx="68" cy="68" r="21" transform="rotate(0,68,68)"/></clipPath><clipPath id="clip-path-corners-square-color-1-0"><path clip-rule="evenodd" d="M 383 54v 28a 35 35, 0, 0, 0, 35 35h 28a 35 35, 0, 0, 0, 35 -35v -28a 35 35, 0, 0, 0, -35 -35h -28a 35 35, 0, 0, 0, -35 35M 418 33h 28a 21 21, 0, 0, 1, 21 21v 28a 21 21, 0, 0, 1, -21 21h -28a 21 21, 0, 0, 1, -21 -21v -28a 21 21, 0, 0, 1, 21 -21" transform="rotate(90,432,68)"/></clipPath><clipPath id="clip-path-corners-dot-color-1-0"><circle cx="432" cy="68" r="21" transform="rotate(90,432,68)"/></clipPath><clipPath id="clip-path-corners-square-color-0-1"><path clip-rule="evenodd" d="M 19 418v 28a 35 35, 0, 0, 0, 35 35h 28a 35 35, 0, 0, 0, 35 -35v -28a 35 35, 0, 0, 0, -35 -35h -28a 35 35, 0, 0, 0, -35 35M 54 397h 28a 21 21, 0, 0, 1, 21 21v 28a 21 21, 0, 0, 1, -21 21h -28a 21 21, 0, 0, 1, -21 -21v -28a 21 21, 0, 0, 1, 21 -21" transform="rotate(-90,68,432)"/></clipPath><clipPath id="clip-path-corners-dot-color-0-1"><circle cx="68" cy="432" r="21" transform="rotate(-90,68,432)"/></clipPath></defs><rect x="0" y="0" height="500" width="500" clip-path="url('#clip-path-background-color')" fill="#fff"/><rect x="0" y="0" height="500" width="500" clip-path="url('#clip-path-dot-color')" fill="#000000"/><rect x="19" y="19" height="98" width="98" clip-path="url('#clip-path-corners-square-color-0-0')" fill="#000000"/><rect x="47" y="47" height="42" width="42" clip-path="url('#clip-path-corners-dot-color-0-0')" fill="#000000"/><rect x="383" y="19" height="98" width="98" clip-path="url('#clip-path-corners-square-color-1-0')" fill="#000000"/><rect x="411" y="47" height="42" width="42" clip-path="url('#clip-path-corners-dot-color-1-0')" fill="#000000"/><rect x="19" y="383" height="98" width="98" clip-path="url('#clip-path-corners-square-color-0-1')" fill="#000000"/><rect x="47" y="411" height="42" width="42" clip-path="url('#clip-path-corners-dot-color-0-1')" fill="#000000"/></svg>