<?xml version="1.0" encoding="UTF-8"?><svg id="a" xmlns="http://www.w3.org/2000/svg" width="433.224mm" height="363.508mm" xmlns:xlink="http://www.w3.org/1999/xlink" viewBox="0 0 1228.037 1030.416"><defs><clipPath id="b"><rect x="373.056" y="234.055" width="481.926" height="110.055" fill="none"/></clipPath><clipPath id="c"><rect x="508.812" y="245.052" width="345.304" height="87.976" fill="none"/></clipPath></defs><path d="M320.477,387.232c-30.668-16.79-50.91-46.908-54.835-79.843-6.982-58.584,34.409-111.362,94.266-118.706,4.558-30.153,20.319-56.163,44.053-75.403,32.434-26.292,75.935-33.23,115.293-18.699,22.859-52.211,71.208-88.517,127.349-93.871,87.359-8.332,163.891,57.704,168.37,144.822,77.141-12.992,145.788,45.653,148.128,123.332,2.033,67.488-46.714,124.431-115.225,131.352l-469.499.293c-21.084.013-40.097-3.531-57.9-13.277ZM840.341,387.13c50.104-.023,93.818-36.574,105.875-84.41,11.11-44.078-2.423-89.368-36.543-118.637-25.651-22.004-59.535-31.467-92.42-25.407,9.515,23.068,10.964,46.678,3.208,69.268-1.486,4.328-6.53,4.543-9.366,2.891-3.817-2.223-3.092-5.686-2.114-9.345,5.478-20.509,3.969-41.908-5.371-60.844-16.187-32.817-50.96-51.689-87.005-45.45-4.063,1.889-8.113.697-10.072-3.697-1.132-1.711-.181-7.548,3.911-8.436,33.099-7.186,65.908,3.854,89.733,29.091C788.141,53.149,712.38.356,634.562,15.603c-55.368,10.849-99.084,54.623-111.066,109.51-3.601,17.404-3.275,33.18-1.264,50.158.475,4.014-4.933,6.276-7.374,5.804-3.486-.675-5.483-2.9-5.932-6.947-2.552-22.995-1.341-45.676,5.796-67.374-36.607-13.531-75.824-6.032-104.891,18.614-38.183,32.375-36.138,70.961-38.962,73.955-1.664,1.764-3.34,1.942-6.301,2.166-24.385,1.842-46.227,12.983-62.552,30.882-34.739,38.086-31.739,97.373,7.777,131.291,15.99,13.725,36.506,23.7,58.234,23.69l472.315-.221Z" fill="#1e1b1c"/><g clip-path="url(#b)"><path d="M421.294,314.435c-14.635-1.774-24.946-12.307-24.946-25.944,0-5.543,1.996-11.53,5.322-15.522-1.441-3.659-1.22-11.42.443-14.635,4.435-.554,10.422,1.774,13.97,4.989,4.213-1.33,8.648-1.996,14.08-1.996s9.867.665,13.859,1.885c3.437-3.104,9.535-5.433,13.97-4.878,1.552,2.994,1.774,10.754.333,14.524,3.548,4.213,5.433,9.867,5.433,15.633,0,13.637-10.311,23.948-25.167,25.833,3.77,2.439,6.32,7.761,6.32,13.859v11.53c0,3.326,2.772,5.211,6.098,3.88,20.067-7.65,35.811-27.717,35.811-52.552,0-31.376-25.5-56.987-56.876-56.987-31.376,0-56.654,25.611-56.654,56.987,0,24.613,15.633,45.013,36.698,52.663,2.994,1.109,5.876-.887,5.876-3.88v-8.87c-1.552.665-3.548,1.109-5.322,1.109-7.317,0-11.641-3.991-14.746-11.42-1.22-2.993-2.55-4.767-5.1-5.1-1.33-.111-1.774-.665-1.774-1.33,0-1.331,2.217-2.328,4.435-2.328,3.215,0,5.987,1.996,8.87,6.098,2.217,3.215,4.546,4.656,7.317,4.656s4.546-.998,7.096-3.548c1.885-1.885,3.326-3.548,4.656-4.656Z" fill="#010101"/><g clip-path="url(#c)"><path d="M591.934,330.213v-57.601h16.193v57.601h-16.193ZM639.523,330.213c-10.761,0-14.964-4.612-14.964-14.349v-29.723h-10.249v-13.529h10.249v-11.479l16.194-3.792v15.272h11.991v13.529h-11.991v26.136c0,3.177,1.435,4.407,4.612,4.407h7.379v13.529h-13.222ZM752.422,331.238c-12.607,0-19.474-6.97-19.474-19.679v-38.948h16.297v34.643c0,7.072,3.177,10.967,9.224,10.967,6.969,0,12.3-6.457,12.3-15.272v-30.338h16.296v57.601h-16.296v-9.737c-3.075,6.252-10.454,10.762-18.347,10.762ZM830.205,331.238c-7.856,0-15.03-4.51-18.45-10.967v9.942h-16.193v-80.355h16.296v33.31c3.317-6.97,10.799-11.889,18.347-11.889,15.718,0,24.021,10.864,23.471,30.031.55,18.961-8.06,29.928-23.471,29.928ZM824.465,317.607c8.442,0,13.054-6.252,12.505-16.297.549-10.147-4.063-16.399-12.505-16.399-6.727,0-12.056,6.56-12.607,15.579v.922c.55,9.327,5.879,16.194,12.607,16.194ZM707.547,249.858v32.593h-30.543v-32.593h-17.423v80.355h17.423v-32.183h30.543v32.183h17.425v-80.355h-17.425ZM547.554,331.751c-23.779,0-38.743-16.297-38.743-41.817s15.272-41.612,39.46-41.612c19.679,0,31.568,8.404,35.36,22.549l-17.629,4.202c-2.152-7.687-8.302-11.889-17.732-11.889-14.042,0-21.626,9.224-21.626,26.751s7.38,26.956,21.216,26.956c12.71,0,20.294-7.789,20.294-21.011v-3.075l4.51,6.252h-26.238v-14.759h39.357v9.327c0,24.496-14.246,38.128-38.23,38.128ZM600.031,267.18c5.432,0,9.635-4.202,9.635-9.634s-4.203-9.634-9.635-9.634-9.634,4.202-9.634,9.634,4.202,9.634,9.634,9.634Z" fill="#010101"/></g></g><path id="d" d="M541.006,908.573c-2.845,2.845-7.457,2.845-10.301,0l-49.447-49.447c-2.845-2.845-2.845-7.457,0-10.301l33.995-33.995,12.922,12.922c-1.151,3.104-.48,6.731,2.015,9.226.757.757,1.619,1.347,2.539,1.768v31.489c-.92.421-1.781,1.011-2.539,1.768-3.414,3.414-3.414,8.948,0,12.362s8.948,3.414,12.362,0,3.414-8.948,0-12.362c-.757-.757-1.619-1.347-2.539-1.768v-30.645l11.855,11.855c-1.151,3.104-.48,6.731,2.015,9.226,3.414,3.414,8.948,3.414,12.362,0,3.414-3.414,3.414-8.948,0-12.362-2.494-2.494-6.122-3.166-9.226-2.015l-12.452-12.452c1.151-3.104.48-6.731-2.015-9.226s-6.122-3.166-9.226-2.015l-12.922-12.922,10.301-10.301c2.845-2.845,7.457-2.845,10.301,0l49.447,49.447c2.845,2.845,2.845,7.457,0,10.301l-49.447,49.447Z" fill="#ef3f2f"/><path id="e" d="M640.684,836.481c-5.91,0-10.315,2.905-10.315,9.891,0,5.263,2.899,8.92,9.996,8.92,6.016,0,10.104-3.541,10.104-9.138,0-6.34-3.657-9.674-9.785-9.674ZM628.863,885.825c-1.399,1.717-2.794,3.545-2.794,5.697,0,4.298,5.477,5.588,13.002,5.588,6.239,0,14.73-.435,14.73-6.229,0-3.45-4.086-3.662-9.249-3.986l-15.69-1.07ZM660.682,836.804c1.931,2.475,3.977,5.915,3.977,10.861,0,11.927-9.351,18.918-22.895,18.918-3.445,0-6.561-.43-8.497-.97l-3.545,5.698,10.531.642c18.6,1.186,29.562,1.727,29.562,16.017,0,12.361-10.856,19.349-29.562,19.349-19.454,0-26.873-4.946-26.873-13.438,0-4.838,2.152-7.411,5.915-10.966-3.551-1.496-4.728-4.183-4.728-7.089,0-2.364,1.177-4.516,3.116-6.561,1.934-2.04,4.082-4.082,6.664-6.446-5.264-2.581-9.245-8.173-9.245-16.129,0-12.361,8.168-20.849,24.617-20.849,4.622,0,7.416.425,9.891,1.077h20.963v9.133l-9.89.753M689.482,817.268c-6.128,0-9.674-3.545-9.674-9.679s3.546-9.456,9.674-9.456c6.238,0,9.785,3.335,9.785,9.456s-3.546,9.679-9.785,9.679ZM675.615,881.873v-8.493l5.482-.748c1.506-.216,1.722-.54,1.722-2.157v-31.601c0-1.177-.322-1.934-1.398-2.253l-5.805-2.045,1.182-8.704h22.252v44.606c0,1.728.106,1.939,1.723,2.157l5.48.748v8.492h-30.638M748.759,877.703c-4.622,2.254-11.392,4.3-17.523,4.3-12.791,0-17.626-5.157-17.626-17.311v-28.158c0-.647,0-1.076-.865-1.076h-7.526v-9.567c9.466-1.076,13.225-5.809,14.407-17.524h10.215v15.266c0,.752,0,1.075.858,1.075h15.155v10.751h-16.014v25.687c0,6.344,1.504,8.814,7.31,8.814,3.01,0,6.126-.752,8.704-1.717l2.904,9.461" fill="#ef3f2f"/><path d="M433.151,994.79l8.877-19.219h9.609l-14.004,27.188v15.469h-8.936v-15.469l-14.004-27.188h9.639l8.818,19.219Z" fill="#231f20"/><path d="M451.754,1002.085c0-3.145.605-5.947,1.816-8.408,1.211-2.461,2.954-4.365,5.229-5.713,2.275-1.348,4.917-2.021,7.925-2.021,4.277,0,7.768,1.309,10.474,3.926,2.705,2.617,4.214,6.172,4.526,10.664l.059,2.168c0,4.863-1.358,8.765-4.072,11.704-2.715,2.939-6.357,4.409-10.928,4.409s-8.218-1.465-10.942-4.395-4.087-6.914-4.087-11.953v-.381ZM460.221,1002.686c0,3.013.566,5.316,1.699,6.91,1.132,1.595,2.754,2.392,4.863,2.392,2.051,0,3.652-.787,4.805-2.362,1.152-1.574,1.729-4.093,1.729-7.555,0-2.954-.576-5.243-1.729-6.866-1.153-1.623-2.773-2.436-4.863-2.436-2.07,0-3.672.807-4.805,2.421-1.133,1.614-1.699,4.112-1.699,7.496Z" fill="#231f20"/><path d="M505.983,1015.005c-2.09,2.539-4.98,3.809-8.672,3.809-3.398,0-5.991-.977-7.778-2.93s-2.7-4.814-2.739-8.584v-20.771h8.467v20.502c0,3.305,1.504,4.957,4.512,4.957,2.871,0,4.844-.997,5.918-2.992v-22.467h8.496v31.699h-7.969l-.234-3.223Z" fill="#231f20"/><path d="M538.385,994.468c-1.153-.156-2.168-.234-3.047-.234-3.204,0-5.303,1.084-6.299,3.252v20.742h-8.467v-31.699h7.998l.234,3.779c1.699-2.91,4.053-4.365,7.061-4.365.938,0,1.816.127,2.637.381l-.117,8.145Z" fill="#231f20"/><path d="M570.582,1011.988c1.562,0,2.832-.43,3.809-1.289s1.484-2.002,1.523-3.428h7.939c-.02,2.148-.605,4.116-1.758,5.903s-2.729,3.174-4.731,4.16-4.214,1.479-6.636,1.479c-4.531,0-8.105-1.44-10.723-4.321-2.618-2.881-3.926-6.86-3.926-11.938v-.557c0-4.883,1.299-8.779,3.896-11.689,2.597-2.91,6.162-4.365,10.693-4.365,3.965,0,7.144,1.128,9.536,3.384s3.608,5.259,3.647,9.009h-7.939c-.039-1.648-.547-2.989-1.523-4.021-.977-1.03-2.266-1.546-3.867-1.546-1.973,0-3.462.719-4.468,2.156-1.006,1.438-1.509,3.771-1.509,6.998v.88c0,3.268.498,5.615,1.494,7.043s2.51,2.142,4.541,2.142Z" fill="#231f20"/><path d="M587.369,1002.085c0-3.145.605-5.947,1.816-8.408s2.954-4.365,5.229-5.713,4.917-2.021,7.925-2.021c4.277,0,7.769,1.309,10.474,3.926s4.214,6.172,4.526,10.664l.059,2.168c0,4.863-1.357,8.765-4.072,11.704s-6.357,4.409-10.928,4.409-8.218-1.465-10.942-4.395-4.087-6.914-4.087-11.953v-.381ZM595.836,1002.686c0,3.013.566,5.316,1.699,6.91,1.133,1.595,2.754,2.392,4.863,2.392,2.051,0,3.652-.787,4.805-2.362,1.152-1.574,1.729-4.093,1.729-7.555,0-2.954-.576-5.243-1.729-6.866s-2.773-2.436-4.863-2.436c-2.07,0-3.672.807-4.805,2.421s-1.699,4.112-1.699,7.496Z" fill="#231f20"/><path d="M630.553,986.529l.264,3.545c2.246-2.754,5.283-4.131,9.111-4.131,4.082,0,6.885,1.611,8.408,4.834,2.227-3.223,5.4-4.834,9.521-4.834,3.438,0,5.997,1.001,7.676,3.003s2.52,5.015,2.52,9.038v20.244h-8.497v-20.215c0-1.797-.352-3.11-1.055-3.94s-1.943-1.245-3.721-1.245c-2.539,0-4.297,1.211-5.273,3.633l.029,21.768h-8.467v-20.186c0-1.836-.361-3.164-1.084-3.984s-1.953-1.23-3.691-1.23c-2.402,0-4.141.996-5.215,2.988v22.412h-8.467v-31.699h7.939Z" fill="#231f20"/><path d="M703.093,1002.671c0,4.883-1.108,8.794-3.325,11.733s-5.21,4.409-8.979,4.409c-3.203,0-5.791-1.113-7.764-3.34v14.941h-8.467v-43.887h7.852l.293,3.105c2.051-2.461,4.727-3.691,8.027-3.691,3.906,0,6.943,1.445,9.111,4.336s3.252,6.875,3.252,11.953v.439ZM694.626,1002.056c0-2.949-.522-5.225-1.567-6.826s-2.563-2.402-4.556-2.402c-2.656,0-4.482,1.016-5.479,3.047v12.979c1.035,2.09,2.881,3.135,5.537,3.135,4.043,0,6.064-3.311,6.064-9.932Z" fill="#231f20"/><path d="M727.321,1015.005c-2.09,2.539-4.98,3.809-8.672,3.809-3.398,0-5.991-.977-7.778-2.93s-2.7-4.814-2.739-8.584v-20.771h8.467v20.502c0,3.305,1.504,4.957,4.512,4.957,2.871,0,4.844-.997,5.918-2.992v-22.467h8.496v31.699h-7.969l-.234-3.223Z" fill="#231f20"/><path d="M752.048,978.736v7.793h5.42v6.211h-5.42v15.82c0,1.172.225,2.012.674,2.52s1.309.762,2.578.762c.938,0,1.768-.068,2.49-.205v6.416c-1.66.508-3.369.762-5.127.762-5.938,0-8.965-2.998-9.082-8.994v-17.08h-4.629v-6.211h4.629v-7.793h8.467Z" fill="#231f20"/><path d="M776.774,1018.814c-4.648,0-8.433-1.426-11.353-4.277s-4.38-6.65-4.38-11.396v-.82c0-3.184.615-6.03,1.846-8.54s2.974-4.443,5.229-5.801,4.829-2.036,7.72-2.036c4.336,0,7.749,1.367,10.239,4.102s3.735,6.611,3.735,11.631v3.457h-20.186c.273,2.07,1.099,3.73,2.476,4.98s3.12,1.875,5.229,1.875c3.262,0,5.811-1.182,7.646-3.545l4.16,4.658c-1.27,1.797-2.988,3.198-5.156,4.204s-4.57,1.509-7.207,1.509ZM775.807,992.769c-1.68,0-3.042.569-4.087,1.707s-1.714,2.767-2.007,4.885h11.777v-.677c-.039-1.884-.547-3.34-1.523-4.37s-2.363-1.545-4.16-1.545Z" fill="#231f20"/><path d="M812.429,994.468c-1.152-.156-2.168-.234-3.047-.234-3.203,0-5.303,1.084-6.299,3.252v20.742h-8.467v-31.699h7.998l.234,3.779c1.699-2.91,4.053-4.365,7.061-4.365.938,0,1.816.127,2.637.381l-.117,8.145Z" fill="#231f20"/><g opacity=".5"><path id="f" d="M61.882,908.573c-2.845,2.845-7.457,2.845-10.301,0l-49.447-49.447c-2.845-2.845-2.845-7.457,0-10.301l33.995-33.995,12.922,12.922c-1.151,3.104-.48,6.731,2.015,9.226.757.757,1.619,1.347,2.539,1.768v31.489c-.92.421-1.781,1.011-2.539,1.768-3.414,3.414-3.414,8.948,0,12.362s8.948,3.414,12.362,0,3.414-8.948,0-12.362c-.757-.757-1.619-1.347-2.539-1.768v-30.645l11.855,11.855c-1.151,3.104-.48,6.731,2.015,9.226,3.414,3.414,8.948,3.414,12.362,0,3.414-3.414,3.414-8.948,0-12.362-2.494-2.494-6.122-3.166-9.226-2.015l-12.452-12.452c1.151-3.104.48-6.731-2.015-9.226s-6.122-3.166-9.226-2.015l-12.922-12.922,10.301-10.301c2.845-2.845,7.457-2.845,10.301,0l49.447,49.447c2.845,2.845,2.845,7.457,0,10.301l-49.447,49.447Z" fill="#ef3f2f"/><path id="g" d="M161.559,836.481c-5.91,0-10.315,2.905-10.315,9.891,0,5.263,2.899,8.92,9.996,8.92,6.016,0,10.104-3.541,10.104-9.138,0-6.34-3.657-9.674-9.785-9.674ZM149.739,885.825c-1.399,1.717-2.794,3.545-2.794,5.697,0,4.298,5.477,5.588,13.002,5.588,6.239,0,14.73-.435,14.73-6.229,0-3.45-4.086-3.662-9.249-3.986l-15.69-1.07ZM181.558,836.804c1.931,2.475,3.977,5.915,3.977,10.861,0,11.927-9.351,18.918-22.895,18.918-3.445,0-6.561-.43-8.497-.97l-3.545,5.698,10.531.642c18.6,1.186,29.562,1.727,29.562,16.017,0,12.361-10.856,19.349-29.562,19.349-19.454,0-26.873-4.946-26.873-13.438,0-4.838,2.152-7.411,5.915-10.966-3.551-1.496-4.728-4.183-4.728-7.089,0-2.364,1.177-4.516,3.116-6.561,1.934-2.04,4.082-4.082,6.664-6.446-5.264-2.581-9.245-8.173-9.245-16.129,0-12.361,8.168-20.849,24.617-20.849,4.622,0,7.416.425,9.891,1.077h20.963v9.133l-9.89.753M210.358,817.268c-6.128,0-9.674-3.545-9.674-9.679s3.546-9.456,9.674-9.456c6.238,0,9.785,3.335,9.785,9.456s-3.546,9.679-9.785,9.679ZM196.491,881.873v-8.493l5.482-.748c1.506-.216,1.722-.54,1.722-2.157v-31.601c0-1.177-.322-1.934-1.398-2.253l-5.805-2.045,1.182-8.704h22.252v44.606c0,1.728.106,1.939,1.723,2.157l5.48.748v8.492h-30.638M269.635,877.703c-4.622,2.254-11.392,4.3-17.523,4.3-12.791,0-17.626-5.157-17.626-17.311v-28.158c0-.647,0-1.076-.865-1.076h-7.526v-9.567c9.466-1.076,13.225-5.809,14.407-17.524h10.215v15.266c0,.752,0,1.075.858,1.075h15.155v10.751h-16.014v25.687c0,6.344,1.504,8.814,7.31,8.814,3.01,0,6.126-.752,8.704-1.717l2.904,9.461" fill="#ef3f2f"/><path d="M2.952,1018.228v-42.656h13.125c3.75,0,7.104.845,10.063,2.534s5.269,4.092,6.929,7.207,2.49,6.655,2.49,10.62v1.963c0,3.965-.815,7.49-2.446,10.576s-3.931,5.479-6.899,7.178-6.318,2.559-10.049,2.578H2.952ZM11.741,982.691v28.477h4.248c3.438,0,6.064-1.123,7.881-3.369s2.744-5.459,2.783-9.639v-2.256c0-4.336-.898-7.622-2.695-9.858s-4.424-3.354-7.881-3.354h-4.336Z" fill="#231f20"/><path d="M55.979,1018.814c-4.648,0-8.433-1.426-11.353-4.277s-4.38-6.65-4.38-11.396v-.82c0-3.184.615-6.03,1.846-8.54s2.974-4.443,5.229-5.801,4.829-2.036,7.72-2.036c4.336,0,7.749,1.367,10.239,4.102s3.735,6.611,3.735,11.631v3.457h-20.186c.273,2.07,1.099,3.73,2.476,4.98s3.12,1.875,5.229,1.875c3.262,0,5.811-1.182,7.646-3.545l4.16,4.658c-1.27,1.797-2.988,3.198-5.156,4.204s-4.57,1.509-7.207,1.509ZM55.013,992.769c-1.68,0-3.042.569-4.087,1.707s-1.714,2.767-2.007,4.885h11.777v-.677c-.039-1.884-.547-3.34-1.523-4.37s-2.363-1.545-4.16-1.545Z" fill="#231f20"/><path d="M85.306,1007.886l5.889-21.357h8.848l-10.693,31.699h-8.086l-10.693-31.699h8.848l5.889,21.357Z" fill="#231f20"/><path d="M117.972,1018.814c-4.648,0-8.433-1.426-11.353-4.277s-4.38-6.65-4.38-11.396v-.82c0-3.184.615-6.03,1.846-8.54s2.974-4.443,5.229-5.801,4.829-2.036,7.72-2.036c4.336,0,7.749,1.367,10.239,4.102s3.735,6.611,3.735,11.631v3.457h-20.186c.273,2.07,1.099,3.73,2.476,4.98s3.12,1.875,5.229,1.875c3.262,0,5.811-1.182,7.646-3.545l4.16,4.658c-1.27,1.797-2.988,3.198-5.156,4.204s-4.57,1.509-7.207,1.509ZM117.005,992.769c-1.68,0-3.042.569-4.087,1.707s-1.714,2.767-2.007,4.885h11.777v-.677c-.039-1.884-.547-3.34-1.523-4.37s-2.363-1.545-4.16-1.545Z" fill="#231f20"/><path d="M144.749,1018.228h-8.496v-45h8.496v45Z" fill="#231f20"/><path d="M150.403,1002.085c0-3.145.605-5.947,1.816-8.408s2.954-4.365,5.229-5.713,4.917-2.021,7.925-2.021c4.277,0,7.769,1.309,10.474,3.926s4.214,6.172,4.526,10.664l.059,2.168c0,4.863-1.357,8.765-4.072,11.704s-6.357,4.409-10.928,4.409-8.218-1.465-10.942-4.395-4.087-6.914-4.087-11.953v-.381ZM158.87,1002.686c0,3.013.566,5.316,1.699,6.91,1.133,1.595,2.754,2.392,4.863,2.392,2.051,0,3.652-.787,4.805-2.362,1.152-1.574,1.729-4.093,1.729-7.555,0-2.954-.576-5.243-1.729-6.866s-2.773-2.436-4.863-2.436c-2.07,0-3.672.807-4.805,2.421s-1.699,4.112-1.699,7.496Z" fill="#231f20"/><path d="M214.182,1002.671c0,4.883-1.108,8.794-3.325,11.733s-5.21,4.409-8.979,4.409c-3.203,0-5.791-1.113-7.764-3.34v14.941h-8.467v-43.887h7.852l.293,3.105c2.051-2.461,4.727-3.691,8.027-3.691,3.906,0,6.943,1.445,9.111,4.336s3.252,6.875,3.252,11.953v.439ZM205.716,1002.056c0-2.949-.522-5.225-1.567-6.826s-2.563-2.402-4.556-2.402c-2.656,0-4.482,1.016-5.479,3.047v12.979c1.035,2.09,2.881,3.135,5.537,3.135,4.043,0,6.064-3.311,6.064-9.932Z" fill="#231f20"/><path d="M234.016,1018.814c-4.648,0-8.433-1.426-11.353-4.277s-4.38-6.65-4.38-11.396v-.82c0-3.184.615-6.03,1.846-8.54s2.974-4.443,5.229-5.801,4.829-2.036,7.72-2.036c4.336,0,7.749,1.367,10.239,4.102s3.735,6.611,3.735,11.631v3.457h-20.186c.273,2.07,1.099,3.73,2.476,4.98s3.12,1.875,5.229,1.875c3.262,0,5.811-1.182,7.646-3.545l4.16,4.658c-1.27,1.797-2.988,3.198-5.156,4.204s-4.57,1.509-7.207,1.509ZM233.05,992.769c-1.68,0-3.042.569-4.087,1.707s-1.714,2.767-2.007,4.885h11.777v-.677c-.039-1.884-.547-3.34-1.523-4.37s-2.363-1.545-4.16-1.545Z" fill="#231f20"/><path d="M269.671,994.468c-1.152-.156-2.168-.234-3.047-.234-3.203,0-5.303,1.084-6.299,3.252v20.742h-8.467v-31.699h7.998l.234,3.779c1.699-2.91,4.053-4.365,7.061-4.365.938,0,1.816.127,2.637.381l-.117,8.145Z" fill="#231f20"/></g><g opacity=".5"><path id="h" d="M1020.131,908.573c-2.845,2.845-7.457,2.845-10.301,0l-49.447-49.447c-2.845-2.845-2.845-7.457,0-10.301l33.995-33.995,12.922,12.922c-1.151,3.104-.48,6.731,2.015,9.226.757.757,1.619,1.347,2.539,1.768v31.489c-.92.421-1.781,1.011-2.539,1.768-3.414,3.414-3.414,8.948,0,12.362s8.948,3.414,12.362,0,3.414-8.948,0-12.362c-.757-.757-1.619-1.347-2.539-1.768v-30.645l11.855,11.855c-1.151,3.104-.48,6.731,2.015,9.226,3.414,3.414,8.948,3.414,12.362,0,3.414-3.414,3.414-8.948,0-12.362-2.494-2.494-6.122-3.166-9.226-2.015l-12.452-12.452c1.151-3.104.48-6.731-2.015-9.226s-6.122-3.166-9.226-2.015l-12.922-12.922,10.301-10.301c2.845-2.845,7.457-2.845,10.301,0l49.447,49.447c2.845,2.845,2.845,7.457,0,10.301l-49.447,49.447Z" fill="#ef3f2f"/><path id="i" d="M1119.808,836.481c-5.91,0-10.315,2.905-10.315,9.891,0,5.263,2.899,8.92,9.996,8.92,6.016,0,10.104-3.541,10.104-9.138,0-6.34-3.657-9.674-9.785-9.674ZM1107.988,885.825c-1.399,1.717-2.794,3.545-2.794,5.697,0,4.298,5.477,5.588,13.002,5.588,6.239,0,14.73-.435,14.73-6.229,0-3.45-4.086-3.662-9.249-3.986l-15.69-1.07ZM1139.807,836.804c1.931,2.475,3.977,5.915,3.977,10.861,0,11.927-9.351,18.918-22.895,18.918-3.445,0-6.561-.43-8.497-.97l-3.545,5.698,10.531.642c18.6,1.186,29.562,1.727,29.562,16.017,0,12.361-10.856,19.349-29.562,19.349-19.454,0-26.873-4.946-26.873-13.438,0-4.838,2.152-7.411,5.915-10.966-3.551-1.496-4.728-4.183-4.728-7.089,0-2.364,1.177-4.516,3.116-6.561,1.934-2.04,4.082-4.082,6.664-6.446-5.264-2.581-9.245-8.173-9.245-16.129,0-12.361,8.168-20.849,24.617-20.849,4.622,0,7.416.425,9.891,1.077h20.963v9.133l-9.89.753M1168.607,817.268c-6.128,0-9.674-3.545-9.674-9.679s3.546-9.456,9.674-9.456c6.238,0,9.785,3.335,9.785,9.456s-3.546,9.679-9.785,9.679ZM1154.739,881.873v-8.493l5.482-.748c1.506-.216,1.722-.54,1.722-2.157v-31.601c0-1.177-.322-1.934-1.398-2.253l-5.805-2.045,1.182-8.704h22.252v44.606c0,1.728.106,1.939,1.723,2.157l5.48.748v8.492h-30.638M1227.884,877.703c-4.622,2.254-11.392,4.3-17.523,4.3-12.791,0-17.626-5.157-17.626-17.311v-28.158c0-.647,0-1.076-.865-1.076h-7.526v-9.567c9.466-1.076,13.225-5.809,14.407-17.524h10.215v15.266c0,.752,0,1.075.858,1.075h15.155v10.751h-16.014v25.687c0,6.344,1.504,8.814,7.31,8.814,3.01,0,6.126-.752,8.704-1.717l2.904,9.461" fill="#ef3f2f"/></g><g opacity=".5"><path d="M961.201,1018.229v-42.656h13.125c3.75,0,7.104.845,10.063,2.534s5.269,4.092,6.929,7.207c1.659,3.115,2.49,6.655,2.49,10.62v1.963c0,3.965-.816,7.49-2.446,10.576-1.631,3.086-3.931,5.479-6.899,7.178-2.97,1.699-6.318,2.559-10.049,2.578h-13.213ZM969.99,982.692v28.477h4.248c3.438,0,6.064-1.123,7.881-3.369s2.743-5.459,2.783-9.639v-2.256c0-4.336-.898-7.622-2.695-9.858-1.798-2.236-4.424-3.354-7.881-3.354h-4.336Z" fill="#231f20"/><path d="M1014.228,1018.815c-4.648,0-8.434-1.426-11.353-4.277-2.92-2.852-4.38-6.65-4.38-11.396v-.82c0-3.184.615-6.03,1.846-8.54s2.974-4.443,5.229-5.801,4.829-2.036,7.72-2.036c4.336,0,7.749,1.367,10.239,4.102s3.735,6.611,3.735,11.631v3.457h-20.186c.273,2.07,1.099,3.73,2.476,4.98s3.12,1.875,5.229,1.875c3.262,0,5.811-1.182,7.646-3.545l4.16,4.658c-1.271,1.797-2.988,3.198-5.156,4.204s-4.57,1.509-7.207,1.509ZM1013.262,992.77c-1.681,0-3.043.569-4.087,1.707-1.045,1.138-1.714,2.767-2.007,4.885h11.777v-.677c-.04-1.884-.547-3.34-1.523-4.37-.978-1.03-2.363-1.545-4.16-1.545Z" fill="#231f20"/><path d="M1043.555,1007.887l5.889-21.357h8.848l-10.693,31.699h-8.086l-10.693-31.699h8.848l5.889,21.357Z" fill="#231f20"/><path d="M1076.221,1018.815c-4.648,0-8.433-1.426-11.353-4.277s-4.38-6.65-4.38-11.396v-.82c0-3.184.615-6.03,1.846-8.54s2.974-4.443,5.229-5.801,4.829-2.036,7.72-2.036c4.336,0,7.749,1.367,10.239,4.102s3.735,6.611,3.735,11.631v3.457h-20.186c.273,2.07,1.099,3.73,2.476,4.98s3.12,1.875,5.229,1.875c3.262,0,5.811-1.182,7.646-3.545l4.16,4.658c-1.27,1.797-2.988,3.198-5.156,4.204s-4.57,1.509-7.207,1.509ZM1075.254,992.77c-1.68,0-3.042.569-4.087,1.707s-1.714,2.767-2.007,4.885h11.777v-.677c-.039-1.884-.547-3.34-1.523-4.37s-2.363-1.545-4.16-1.545Z" fill="#231f20"/><path d="M1102.998,1018.229h-8.496v-45h8.496v45Z" fill="#231f20"/><path d="M1108.652,1002.086c0-3.145.605-5.947,1.816-8.408s2.954-4.365,5.229-5.713,4.917-2.021,7.925-2.021c4.277,0,7.769,1.309,10.474,3.926s4.214,6.172,4.526,10.664l.059,2.168c0,4.863-1.357,8.765-4.072,11.704s-6.357,4.409-10.928,4.409-8.218-1.465-10.942-4.395-4.087-6.914-4.087-11.953v-.381ZM1117.119,1002.687c0,3.013.566,5.316,1.699,6.91,1.133,1.595,2.754,2.392,4.863,2.392,2.051,0,3.652-.787,4.805-2.362,1.152-1.574,1.729-4.093,1.729-7.555,0-2.954-.576-5.243-1.729-6.866s-2.773-2.436-4.863-2.436c-2.07,0-3.672.807-4.805,2.421s-1.699,4.112-1.699,7.496Z" fill="#231f20"/><path d="M1172.431,1002.672c0,4.883-1.108,8.794-3.325,11.733s-5.21,4.409-8.979,4.409c-3.203,0-5.791-1.113-7.764-3.34v14.941h-8.467v-43.887h7.852l.293,3.105c2.051-2.461,4.727-3.691,8.027-3.691,3.906,0,6.943,1.445,9.111,4.336s3.252,6.875,3.252,11.953v.439ZM1163.965,1002.057c0-2.949-.522-5.225-1.567-6.826s-2.563-2.402-4.556-2.402c-2.656,0-4.482,1.016-5.479,3.047v12.979c1.035,2.09,2.881,3.135,5.537,3.135,4.043,0,6.064-3.311,6.064-9.932Z" fill="#231f20"/><path d="M1192.265,1018.815c-4.648,0-8.433-1.426-11.353-4.277s-4.38-6.65-4.38-11.396v-.82c0-3.184.615-6.03,1.846-8.54s2.974-4.443,5.229-5.801,4.829-2.036,7.72-2.036c4.336,0,7.749,1.367,10.239,4.102s3.735,6.611,3.735,11.631v3.457h-20.186c.273,2.07,1.099,3.73,2.476,4.98s3.12,1.875,5.229,1.875c3.262,0,5.811-1.182,7.646-3.545l4.16,4.658c-1.27,1.797-2.988,3.198-5.156,4.204s-4.57,1.509-7.207,1.509ZM1191.299,992.77c-1.68,0-3.042.569-4.087,1.707s-1.714,2.767-2.007,4.885h11.777v-.677c-.039-1.884-.547-3.34-1.523-4.37s-2.363-1.545-4.16-1.545Z" fill="#231f20"/><path d="M1227.92,994.469c-1.152-.156-2.168-.234-3.047-.234-3.203,0-5.303,1.084-6.299,3.252v20.742h-8.467v-31.699h7.998l.234,3.779c1.699-2.91,4.053-4.365,7.061-4.365.938,0,1.816.127,2.637.381l-.117,8.145Z" fill="#231f20"/></g><g opacity=".5"><rect x="87.464" y="592.376" width="267.008" height="13" transform="translate(-408.16 490.814) rotate(-60.001)"/><path d="M307.334,449.286c-15.161,12.561-36.733,26.552-54.55,32.658l32.362,5.773,21.175,25.137c-3.621-18.484-2.29-44.161,1.013-63.568Z"/><path d="M134.602,748.467c3.298-19.41,4.629-45.088,1.007-63.571l21.181,25.14,32.357,5.77c-17.818,6.106-39.39,20.097-54.545,32.661Z"/></g><g opacity=".5"><rect x="1000.569" y="465.373" width="13" height="267.008" transform="translate(-164.517 583.769) rotate(-30)"/><path d="M1093.435,748.467c-3.298-19.41-4.629-45.088-1.007-63.571l-21.181,25.14-32.357,5.77c17.818,6.106,39.39,20.097,54.545,32.661Z"/><path d="M920.703,449.286c15.161,12.561,36.733,26.552,54.55,32.658l-32.362,5.773-21.175,25.137c3.621-18.484,2.29-44.161-1.013-63.568Z"/></g><rect x="607.515" y="488.513" width="13" height="220.726"/><path d="M614.015,748.467c6.849-18.459,18.535-41.361,30.913-55.558l-30.913,11.181-30.907-11.181c12.378,14.197,24.064,37.099,30.907,55.558Z"/><path d="M614.015,449.285c6.849,18.459,18.535,41.361,30.913,55.558l-30.913-11.181-30.907,11.181c12.378-14.197,24.064-37.099,30.907-55.558Z"/></svg>