<svg xmlns="http://www.w3.org/2000/svg" xmlns:xlink="http://www.w3.org/1999/xlink" contentStyleType="text/css" data-diagram-type="CLASS" height="462.5px" preserveAspectRatio="none" style="width:410px;height:462px;" version="1.1" viewBox="0 0 410 462" width="410.4167px" zoomAndPan="magnify"><?plantuml 1.2026.3beta6?><defs><linearGradient id="ggcolbvjp7e940" x1="50%" x2="50%" y1="0%" y2="100%"><stop offset="0%" stop-color="#7C9AB9"/><stop offset="100%" stop-color="#304D6D"/></linearGradient><linearGradient id="ggcolbvjp7e941" x1="50%" x2="50%" y1="0%" y2="100%"><stop offset="0%" stop-color="#7C9AB9"/><stop offset="100%" stop-color="#446E9B"/></linearGradient></defs><g><!--class Person--><g class="entity" data-qualified-name="Person" data-source-line="5" id="ent0002"><rect fill="url(#ggcolbvjp7e940)" height="98.348" rx="4.1667" ry="4.1667" style="stroke:#304D6D;stroke-width:1.0417;" width="80.5791" x="163.3333" y="17.7083"/><rect fill="url(#ggcolbvjp7e941)" height="34.1715" rx="4.1667" ry="4.1667" style="stroke:url(#ggcolbvjp7e941);stroke-width:1.0417;" width="80.5791" x="163.3333" y="17.7083"/><rect fill="url(#ggcolbvjp7e941)" height="4.1667" style="stroke:url(#ggcolbvjp7e941);stroke-width:1.0417;" width="80.5791" x="163.3333" y="47.7132"/><rect fill="none" height="98.348" rx="4.1667" ry="4.1667" style="stroke:#304D6D;stroke-width:1.0417;" width="80.5791" x="163.3333" y="17.7083"/><ellipse cx="177.9167" cy="34.7941" fill="#B8B8B8" rx="10.4167" ry="10.4167" style="stroke:#6B6B6B;stroke-width:1.0417;"/><path d="M179.821,39.2212 Q179.3978,39.4328 178.9258,39.5467 Q178.4538,39.6606 177.9492,39.6606 Q176.0938,39.6606 175.1172,38.4562 Q174.1569,37.2355 174.1569,34.9406 Q174.1569,32.6294 175.1172,31.425 Q176.0938,30.2043 177.9492,30.2043 Q178.4538,30.2043 178.9258,30.3182 Q179.4141,30.4159 179.821,30.6437 L179.821,32.6457 Q179.3652,32.2225 178.9258,32.0272 Q178.4863,31.8156 178.0306,31.8156 Q177.0378,31.8156 176.5332,32.6131 Q176.0286,33.3944 176.0286,34.9406 Q176.0286,36.4705 176.5332,37.2518 Q177.0378,38.033 178.0306,38.033 Q178.4863,38.033 178.9258,37.8377 Q179.3652,37.6424 179.821,37.2192 L179.821,39.2212 Z " fill="#FFFFFF"/><text fill="#EEEEEE" font-family="'Verdana'" font-size="11.4583" lengthAdjust="spacing" textLength="38.9125" x="196.6667" y="38.7609">Person</text><line style="stroke:#304D6D;stroke-width:1.0417;" x1="164.375" x2="242.8708" y1="51.8799" y2="51.8799"/><text fill="#EEEEEE" font-family="'Verdana'" font-size="11.4583" lengthAdjust="spacing" textLength="42.0959" x="174.7917" y="71.8908">+name</text><text fill="#EEEEEE" font-family="'Verdana'" font-size="11.4583" lengthAdjust="spacing" textLength="41.212" x="174.7917" y="95.6457">+office</text><line style="stroke:#304D6D;stroke-width:1.0417;" x1="164.375" x2="242.8708" y1="107.723" y2="107.723"/></g><!--class Author--><g class="entity" data-qualified-name="Author" data-source-line="9" id="ent0003"><rect fill="url(#ggcolbvjp7e940)" height="98.348" rx="4.1667" ry="4.1667" style="stroke:#304D6D;stroke-width:1.0417;" width="109.3241" x="17.7083" y="17.7083"/><rect fill="url(#ggcolbvjp7e941)" height="34.1715" rx="4.1667" ry="4.1667" style="stroke:url(#ggcolbvjp7e941);stroke-width:1.0417;" width="109.3241" x="17.7083" y="17.7083"/><rect fill="url(#ggcolbvjp7e941)" height="4.1667" style="stroke:url(#ggcolbvjp7e941);stroke-width:1.0417;" width="109.3241" x="17.7083" y="47.7132"/><rect fill="none" height="98.348" rx="4.1667" ry="4.1667" style="stroke:#304D6D;stroke-width:1.0417;" width="109.3241" x="17.7083" y="17.7083"/><ellipse cx="45.378" cy="34.7941" fill="#B8B8B8" rx="10.4167" ry="10.4167" style="stroke:#6B6B6B;stroke-width:1.0417;"/><path d="M47.2823,39.2212 Q46.8591,39.4328 46.3871,39.5467 Q45.9151,39.6606 45.4105,39.6606 Q43.5551,39.6606 42.5785,38.4562 Q41.6182,37.2355 41.6182,34.9406 Q41.6182,32.6294 42.5785,31.425 Q43.5551,30.2043 45.4105,30.2043 Q45.9151,30.2043 46.3871,30.3182 Q46.8754,30.4159 47.2823,30.6437 L47.2823,32.6457 Q46.8266,32.2225 46.3871,32.0272 Q45.9476,31.8156 45.4919,31.8156 Q44.4991,31.8156 43.9945,32.6131 Q43.49,33.3944 43.49,34.9406 Q43.49,36.4705 43.9945,37.2518 Q44.4991,38.033 45.4919,38.033 Q45.9476,38.033 46.3871,37.8377 Q46.8266,37.6424 47.2823,37.2192 L47.2823,39.2212 Z " fill="#FFFFFF"/><text fill="#EEEEEE" font-family="'Verdana'" font-size="11.4583" lengthAdjust="spacing" textLength="38.5768" x="67.0361" y="38.7609">Author</text><line style="stroke:#304D6D;stroke-width:1.0417;" x1="18.75" x2="125.9908" y1="51.8799" y2="51.8799"/><text fill="#EEEEEE" font-family="'Verdana'" font-size="11.4583" lengthAdjust="spacing" textLength="48.8993" x="29.1667" y="71.8908">+papers</text><line style="stroke:#304D6D;stroke-width:1.0417;" x1="18.75" x2="125.9908" y1="83.9681" y2="83.9681"/><text fill="#EEEEEE" font-family="'Verdana'" font-size="11.4583" lengthAdjust="spacing" textLength="86.4075" x="29.1667" y="103.979">+write_paper()</text></g><!--class Instructor--><g class="entity" data-qualified-name="Instructor" data-source-line="15" id="ent0004"><rect fill="url(#ggcolbvjp7e940)" height="98.348" rx="4.1667" ry="4.1667" style="stroke:#304D6D;stroke-width:1.0417;" width="117.6158" x="157.3125" y="204.5938"/><rect fill="url(#ggcolbvjp7e941)" height="34.1715" rx="4.1667" ry="4.1667" style="stroke:url(#ggcolbvjp7e941);stroke-width:1.0417;" width="117.6158" x="157.3125" y="204.5938"/><rect fill="url(#ggcolbvjp7e941)" height="4.1667" style="stroke:url(#ggcolbvjp7e941);stroke-width:1.0417;" width="117.6158" x="157.3125" y="234.5986"/><rect fill="none" height="98.348" rx="4.1667" ry="4.1667" style="stroke:#304D6D;stroke-width:1.0417;" width="117.6158" x="157.3125" y="204.5938"/><ellipse cx="181.0571" cy="221.6795" fill="#B8B8B8" rx="10.4167" ry="10.4167" style="stroke:#6B6B6B;stroke-width:1.0417;"/><path d="M182.9614,226.1066 Q182.5382,226.3182 182.0662,226.4321 Q181.5942,226.5461 181.0896,226.5461 Q179.2341,226.5461 178.2576,225.3416 Q177.2973,224.1209 177.2973,221.826 Q177.2973,219.5148 178.2576,218.3104 Q179.2341,217.0897 181.0896,217.0897 Q181.5942,217.0897 182.0662,217.2036 Q182.5545,217.3013 182.9614,217.5291 L182.9614,219.5311 Q182.5056,219.1079 182.0662,218.9126 Q181.6267,218.701 181.171,218.701 Q180.1782,218.701 179.6736,219.4985 Q179.169,220.2798 179.169,221.826 Q179.169,223.356 179.6736,224.1372 Q180.1782,224.9185 181.171,224.9185 Q181.6267,224.9185 182.0662,224.7231 Q182.5056,224.5278 182.9614,224.1047 L182.9614,226.1066 Z " fill="#FFFFFF"/><text fill="#EEEEEE" font-family="'Verdana'" font-size="11.4583" lengthAdjust="spacing" textLength="55.5908" x="201.8429" y="225.6463">Instructor</text><line style="stroke:#304D6D;stroke-width:1.0417;" x1="158.3542" x2="273.8866" y1="238.7653" y2="238.7653"/><text fill="#EEEEEE" font-family="'Verdana'" font-size="11.4583" lengthAdjust="spacing" textLength="53.8732" x="168.7708" y="258.7762">+courses</text><line style="stroke:#304D6D;stroke-width:1.0417;" x1="158.3542" x2="273.8866" y1="270.8535" y2="270.8535"/><text fill="#EEEEEE" font-family="'Verdana'" font-size="11.4583" lengthAdjust="spacing" textLength="94.6991" x="168.7708" y="290.8644">+teach_course()</text></g><!--class Admin--><g class="entity" data-qualified-name="Admin" data-source-line="20" id="ent0005"><rect fill="url(#ggcolbvjp7e940)" height="50.8382" rx="4.1667" ry="4.1667" style="stroke:#304D6D;stroke-width:1.0417;" width="78.3859" x="311.3021" y="228.3542"/><rect fill="url(#ggcolbvjp7e941)" height="34.1715" rx="4.1667" ry="4.1667" style="stroke:url(#ggcolbvjp7e941);stroke-width:1.0417;" width="78.3859" x="311.3021" y="228.3542"/><rect fill="url(#ggcolbvjp7e941)" height="4.1667" style="stroke:url(#ggcolbvjp7e941);stroke-width:1.0417;" width="78.3859" x="311.3021" y="258.359"/><rect fill="none" height="50.8382" rx="4.1667" ry="4.1667" style="stroke:#304D6D;stroke-width:1.0417;" width="78.3859" x="311.3021" y="228.3542"/><ellipse cx="325.8854" cy="245.4399" fill="#B8B8B8" rx="10.4167" ry="10.4167" style="stroke:#6B6B6B;stroke-width:1.0417;"/><path d="M327.7897,249.867 Q327.3665,250.0786 326.8945,250.1925 Q326.4225,250.3065 325.918,250.3065 Q324.0625,250.3065 323.0859,249.1021 Q322.1257,247.8813 322.1257,245.5864 Q322.1257,243.2752 323.0859,242.0708 Q324.0625,240.8501 325.918,240.8501 Q326.4225,240.8501 326.8945,240.964 Q327.3828,241.0617 327.7897,241.2896 L327.7897,243.2915 Q327.334,242.8683 326.8945,242.673 Q326.4551,242.4614 325.9993,242.4614 Q325.0065,242.4614 324.502,243.259 Q323.9974,244.0402 323.9974,245.5864 Q323.9974,247.1164 324.502,247.8976 Q325.0065,248.6789 325.9993,248.6789 Q326.4551,248.6789 326.8945,248.4836 Q327.334,248.2882 327.7897,247.8651 L327.7897,249.867 Z " fill="#FFFFFF"/><text fill="#EEEEEE" font-family="'Verdana'" font-size="11.4583" lengthAdjust="spacing" textLength="36.7193" x="344.6354" y="249.4067">Admin</text><line style="stroke:#304D6D;stroke-width:1.0417;" x1="312.3438" x2="388.6463" y1="262.5257" y2="262.5257"/><line style="stroke:#304D6D;stroke-width:1.0417;" x1="312.3438" x2="388.6463" y1="270.859" y2="270.859"/></g><!--class Academic--><g class="entity" data-qualified-name="Academic" data-source-line="21" id="ent0006"><rect fill="url(#ggcolbvjp7e940)" height="50.8382" rx="4.1667" ry="4.1667" style="stroke:#304D6D;stroke-width:1.0417;" width="97.7946" x="23.4792" y="228.3542"/><rect fill="url(#ggcolbvjp7e941)" height="34.1715" rx="4.1667" ry="4.1667" style="stroke:url(#ggcolbvjp7e941);stroke-width:1.0417;" width="97.7946" x="23.4792" y="228.3542"/><rect fill="url(#ggcolbvjp7e941)" height="4.1667" style="stroke:url(#ggcolbvjp7e941);stroke-width:1.0417;" width="97.7946" x="23.4792" y="258.359"/><rect fill="none" height="50.8382" rx="4.1667" ry="4.1667" style="stroke:#304D6D;stroke-width:1.0417;" width="97.7946" x="23.4792" y="228.3542"/><ellipse cx="38.0625" cy="245.4399" fill="#B8B8B8" rx="10.4167" ry="10.4167" style="stroke:#6B6B6B;stroke-width:1.0417;"/><path d="M39.9668,249.867 Q39.5436,250.0786 39.0716,250.1925 Q38.5996,250.3065 38.0951,250.3065 Q36.2396,250.3065 35.263,249.1021 Q34.3027,247.8813 34.3027,245.5864 Q34.3027,243.2752 35.263,242.0708 Q36.2396,240.8501 38.0951,240.8501 Q38.5996,240.8501 39.0716,240.964 Q39.5599,241.0617 39.9668,241.2896 L39.9668,243.2915 Q39.5111,242.8683 39.0716,242.673 Q38.6322,242.4614 38.1764,242.4614 Q37.1836,242.4614 36.679,243.259 Q36.1745,244.0402 36.1745,245.5864 Q36.1745,247.1164 36.679,247.8976 Q37.1836,248.6789 38.1764,248.6789 Q38.6322,248.6789 39.0716,248.4836 Q39.5111,248.2882 39.9668,247.8651 L39.9668,249.867 Z " fill="#FFFFFF"/><text fill="#EEEEEE" font-family="'Verdana'" font-size="11.4583" lengthAdjust="spacing" textLength="56.1279" x="56.8125" y="249.4067">Academic</text><line style="stroke:#304D6D;stroke-width:1.0417;" x1="24.5208" x2="120.2321" y1="262.5257" y2="262.5257"/><line style="stroke:#304D6D;stroke-width:1.0417;" x1="24.5208" x2="120.2321" y1="270.859" y2="270.859"/></g><!--class Lecturer--><g class="entity" data-qualified-name="Lecturer" data-source-line="22" id="ent0007"><rect fill="url(#ggcolbvjp7e940)" height="50.8382" rx="4.1667" ry="4.1667" style="stroke:#304D6D;stroke-width:1.0417;" width="89.6261" x="87.9792" y="391.4896"/><rect fill="url(#ggcolbvjp7e941)" height="34.1715" rx="4.1667" ry="4.1667" style="stroke:url(#ggcolbvjp7e941);stroke-width:1.0417;" width="89.6261" x="87.9792" y="391.4896"/><rect fill="url(#ggcolbvjp7e941)" height="4.1667" style="stroke:url(#ggcolbvjp7e941);stroke-width:1.0417;" width="89.6261" x="87.9792" y="421.4945"/><rect fill="none" height="50.8382" rx="4.1667" ry="4.1667" style="stroke:#304D6D;stroke-width:1.0417;" width="89.6261" x="87.9792" y="391.4896"/><ellipse cx="102.5625" cy="408.5754" fill="#B8B8B8" rx="10.4167" ry="10.4167" style="stroke:#6B6B6B;stroke-width:1.0417;"/><path d="M104.4668,413.0024 Q104.0436,413.214 103.5716,413.328 Q103.0996,413.4419 102.5951,413.4419 Q100.7396,413.4419 99.763,412.2375 Q98.8027,411.0168 98.8027,408.7218 Q98.8027,406.4106 99.763,405.2062 Q100.7396,403.9855 102.5951,403.9855 Q103.0996,403.9855 103.5716,404.0994 Q104.0599,404.1971 104.4668,404.425 L104.4668,406.4269 Q104.0111,406.0037 103.5716,405.8084 Q103.1322,405.5968 102.6764,405.5968 Q101.6836,405.5968 101.179,406.3944 Q100.6745,407.1756 100.6745,408.7218 Q100.6745,410.2518 101.179,411.033 Q101.6836,411.8143 102.6764,411.8143 Q103.1322,411.8143 103.5716,411.619 Q104.0111,411.4237 104.4668,411.0005 L104.4668,413.0024 Z " fill="#FFFFFF"/><text fill="#EEEEEE" font-family="'Verdana'" font-size="11.4583" lengthAdjust="spacing" textLength="47.9594" x="121.3125" y="412.5421">Lecturer</text><line style="stroke:#304D6D;stroke-width:1.0417;" x1="89.0208" x2="176.5636" y1="425.6611" y2="425.6611"/><line style="stroke:#304D6D;stroke-width:1.0417;" x1="89.0208" x2="176.5636" y1="433.9945" y2="433.9945"/></g><!--class Librarian--><g class="entity" data-qualified-name="Librarian" data-source-line="23" id="ent0008"><rect fill="url(#ggcolbvjp7e940)" height="50.8382" rx="4.1667" ry="4.1667" style="stroke:#304D6D;stroke-width:1.0417;" width="92.4179" x="232.4167" y="391.4896"/><rect fill="url(#ggcolbvjp7e941)" height="34.1715" rx="4.1667" ry="4.1667" style="stroke:url(#ggcolbvjp7e941);stroke-width:1.0417;" width="92.4179" x="232.4167" y="391.4896"/><rect fill="url(#ggcolbvjp7e941)" height="4.1667" style="stroke:url(#ggcolbvjp7e941);stroke-width:1.0417;" width="92.4179" x="232.4167" y="421.4945"/><rect fill="none" height="50.8382" rx="4.1667" ry="4.1667" style="stroke:#304D6D;stroke-width:1.0417;" width="92.4179" x="232.4167" y="391.4896"/><ellipse cx="247" cy="408.5754" fill="#B8B8B8" rx="10.4167" ry="10.4167" style="stroke:#6B6B6B;stroke-width:1.0417;"/><path d="M248.9043,413.0024 Q248.4811,413.214 248.0091,413.328 Q247.5371,413.4419 247.0326,413.4419 Q245.1771,413.4419 244.2005,412.2375 Q243.2402,411.0168 243.2402,408.7218 Q243.2402,406.4106 244.2005,405.2062 Q245.1771,403.9855 247.0326,403.9855 Q247.5371,403.9855 248.0091,404.0994 Q248.4974,404.1971 248.9043,404.425 L248.9043,406.4269 Q248.4486,406.0037 248.0091,405.8084 Q247.5697,405.5968 247.1139,405.5968 Q246.1211,405.5968 245.6165,406.3944 Q245.112,407.1756 245.112,408.7218 Q245.112,410.2518 245.6165,411.033 Q246.1211,411.8143 247.1139,411.8143 Q247.5697,411.8143 248.0091,411.619 Q248.4486,411.4237 248.9043,411.0005 L248.9043,413.0024 Z " fill="#FFFFFF"/><text fill="#EEEEEE" font-family="'Verdana'" font-size="11.4583" lengthAdjust="spacing" textLength="50.7512" x="265.75" y="412.5421">Librarian</text><line style="stroke:#304D6D;stroke-width:1.0417;" x1="233.4583" x2="323.7929" y1="425.6611" y2="425.6611"/><line style="stroke:#304D6D;stroke-width:1.0417;" x1="233.4583" x2="323.7929" y1="433.9945" y2="433.9945"/></g><!--link Person to Author--><!--reverse link Person to Admin--><g class="link" data-entity-1="ent0002" data-entity-2="ent0005" data-link-type="extension" data-source-line="27" id="lnk10"><path codeLine="27" d="M253.8845,131.1582 C282.4366,167.0852 308.4792,199.8542 331.0313,228.2292" fill="none" id="Person-backto-Admin" style="stroke:#446E9B;stroke-width:3.125;"/><polygon fill="none" points="242.2188,116.4792,248.9915,135.0467,258.7775,127.2696,242.2188,116.4792" style="stroke:#446E9B;stroke-width:3.125;"/></g><!--reverse link Person to Academic--><g class="link" data-entity-1="ent0002" data-entity-2="ent0006" data-link-type="extension" data-source-line="28" id="lnk11"><path codeLine="28" d="M169.4981,132.8602 C159.3314,151.2144 156.0313,155.5417 143.2083,173.3437 C129.1667,192.8229 111.125,212.9896 96.7604,228.125" fill="none" id="Person-backto-Academic" style="stroke:#446E9B;stroke-width:3.125;"/><polygon fill="none" points="178.5833,116.4583,164.0308,129.8318,174.9654,135.8886,178.5833,116.4583" style="stroke:#446E9B;stroke-width:3.125;"/></g><!--reverse link Admin to Librarian--><g class="link" data-entity-1="ent0005" data-entity-2="ent0008" data-link-type="extension" data-source-line="29" id="lnk12"><path codeLine="29" d="M345.4109,297.9407 C342.3796,320.0449 338.5313,334.3646 325.5,360.2396 C319.9375,371.2917 311.7604,382.0313 303.7917,391.0833" fill="none" id="Admin-backto-Librarian" style="stroke:#446E9B;stroke-width:3.125;"/><polygon fill="none" points="347.9583,279.3646,339.2189,297.0916,351.6029,298.7899,347.9583,279.3646" style="stroke:#446E9B;stroke-width:3.125;"/></g><!--reverse link Academic to Lecturer--><g class="link" data-entity-1="ent0006" data-entity-2="ent0007" data-link-type="extension" data-source-line="30" id="lnk13"><path codeLine="30" d="M86.2707,297.5176 C93.3436,318.9968 98.2604,332.9688 108.8333,360.2396 C112.7813,370.4271 117.4792,381.5208 121.6667,391.1042" fill="none" id="Academic-backto-Lecturer" style="stroke:#446E9B;stroke-width:3.125;"/><polygon fill="none" points="80.4063,279.7083,80.3343,299.4724,92.2071,295.5628,80.4063,279.7083" style="stroke:#446E9B;stroke-width:3.125;"/></g><!--reverse link Academic to Author--><g class="link" data-entity-1="ent0006" data-entity-2="ent0003" data-link-type="composition" data-source-line="32" id="lnk14"><path codeLine="32" d="M72.375,215.7292 C72.375,187.3542 72.375,152.4063 72.375,116.4792" fill="none" id="Academic-backto-Author" style="stroke:#446E9B;stroke-width:3.125;"/><polygon fill="#446E9B" points="72.375,228.2292,76.5417,221.9792,72.375,215.7292,68.2083,221.9792,72.375,228.2292" style="stroke:#446E9B;stroke-width:3.125;"/><text fill="#FFFFFF" font-family="'Verdana'" font-size="12.5" lengthAdjust="spacing" textLength="50.0183" x="78.625" y="165.1549">has role</text></g><!--link Instructor to Librarian--><g class="link" data-entity-1="ent0004" data-entity-2="ent0008" data-link-type="composition" data-source-line="33" id="lnk16"><path codeLine="33" d="M234.875,303.1354 C246.1667,332.2292 255.5387,356.3786 264.6012,379.7223" fill="none" id="Instructor-to-Librarian" style="stroke:#446E9B;stroke-width:3.125;"/><polygon fill="#446E9B" points="269.125,391.375,270.7473,384.0407,264.6012,379.7223,262.9789,387.0566,269.125,391.375" style="stroke:#446E9B;stroke-width:3.125;"/><text fill="#FFFFFF" font-family="'Verdana'" font-size="12.5" lengthAdjust="spacing" textLength="50.0183" x="261.9583" y="352.0507">has role</text></g><!--link Instructor to Lecturer--><g class="link" data-entity-1="ent0004" data-entity-2="ent0007" data-link-type="composition" data-source-line="34" id="lnk18"><path codeLine="34" d="M191.125,303.1354 C176.0729,332.2292 163.2878,356.9303 151.2045,380.274" fill="none" id="Instructor-to-Lecturer" style="stroke:#446E9B;stroke-width:3.125;"/><polygon fill="#446E9B" points="145.4583,391.375,152.0317,387.7399,151.2045,380.274,144.6311,383.9091,145.4583,391.375" style="stroke:#446E9B;stroke-width:3.125;"/><text fill="#FFFFFF" font-family="'Verdana'" font-size="12.5" lengthAdjust="spacing" textLength="50.0183" x="180.7083" y="352.0507">has role</text></g><?plantuml-src VP0nJyCm48Lt_ufZ0o9Bp8WbOoK6f8u8LHVdYYrYEpgVXGJqlvF6TbeMjkTtxtjd-qOiUO8qew491vK-N9YHqOEPCALUXDsGXNOcXhtx8dXGIk8xBHZ3ju8IWnVY5CDg07G1FHKLZqTdplgqHViiDdABpZWlQD6Vx8GEgtDxjp8dfGgq2qau6wbWPsBcH6Uk4q9Z3yLOi0tfH-z2qmP7yixKupCPoKpSZcvWP8T1gVeEpQ_MZIE5DrtlkusUVhIktN-Sjc4T5U_IswRLR-il_htcjWaUmM82ZXEfhM49P7tz2zUXMlTFvXS0?></g></svg>