<svg xmlns="http://www.w3.org/2000/svg" xmlns:xlink="http://www.w3.org/1999/xlink" contentStyleType="text/css" data-diagram-type="CLASS" height="363.5417px" preserveAspectRatio="none" style="width:420px;height:363px;" version="1.1" viewBox="0 0 420 363" width="420.8333px" zoomAndPan="magnify"><?plantuml 1.2026.3beta6?><defs><linearGradient id="gbhj5rhh56osb0" x1="50%" x2="50%" y1="0%" y2="100%"><stop offset="0%" stop-color="#7C9AB9"/><stop offset="100%" stop-color="#304D6D"/></linearGradient><linearGradient id="gbhj5rhh56osb1" x1="50%" x2="50%" y1="0%" y2="100%"><stop offset="0%" stop-color="#7C9AB9"/><stop offset="100%" stop-color="#446E9B"/></linearGradient><linearGradient id="gbhj5rhh56osb2" x1="50%" x2="50%" y1="0%" y2="100%"><stop offset="0%" stop-color="#70B8F7"/><stop offset="100%" stop-color="#246BAA"/></linearGradient></defs><g><!--class Person--><g class="entity" data-qualified-name="Person" data-source-line="4" id="ent0002"><rect fill="url(#gbhj5rhh56osb0)" height="74.5931" rx="4.1667" ry="4.1667" style="stroke:#304D6D;stroke-width:1.0417;" width="80.5791" x="107" y="17.7083"/><rect fill="url(#gbhj5rhh56osb1)" height="34.1715" rx="4.1667" ry="4.1667" style="stroke:url(#gbhj5rhh56osb1);stroke-width:1.0417;" width="80.5791" x="107" y="17.7083"/><rect fill="url(#gbhj5rhh56osb1)" height="4.1667" style="stroke:url(#gbhj5rhh56osb1);stroke-width:1.0417;" width="80.5791" x="107" y="47.7132"/><rect fill="none" height="74.5931" rx="4.1667" ry="4.1667" style="stroke:#304D6D;stroke-width:1.0417;" width="80.5791" x="107" y="17.7083"/><ellipse cx="121.5833" cy="34.7941" fill="#B8B8B8" rx="10.4167" ry="10.4167" style="stroke:#6B6B6B;stroke-width:1.0417;"/><path d="M123.4876,39.2212 Q123.0645,39.4328 122.5924,39.5467 Q122.1204,39.6606 121.6159,39.6606 Q119.7604,39.6606 118.7839,38.4562 Q117.8236,37.2355 117.8236,34.9406 Q117.8236,32.6294 118.7839,31.425 Q119.7604,30.2043 121.6159,30.2043 Q122.1204,30.2043 122.5924,30.3182 Q123.0807,30.4159 123.4876,30.6437 L123.4876,32.6457 Q123.0319,32.2225 122.5924,32.0272 Q122.153,31.8156 121.6973,31.8156 Q120.7044,31.8156 120.1999,32.6131 Q119.6953,33.3944 119.6953,34.9406 Q119.6953,36.4705 120.1999,37.2518 Q120.7044,38.033 121.6973,38.033 Q122.153,38.033 122.5924,37.8377 Q123.0319,37.6424 123.4876,37.2192 L123.4876,39.2212 Z " fill="#FFFFFF"/><text fill="#EEEEEE" font-family="'Verdana'" font-size="11.4583" lengthAdjust="spacing" textLength="38.9125" x="140.3333" y="38.7609">Person</text><line style="stroke:#304D6D;stroke-width:1.0417;" x1="108.0417" x2="186.5375" y1="51.8799" y2="51.8799"/><text fill="#EEEEEE" font-family="'Verdana'" font-size="11.4583" lengthAdjust="spacing" textLength="42.0959" x="118.4583" y="71.8908">+name</text><line style="stroke:#304D6D;stroke-width:1.0417;" x1="108.0417" x2="186.5375" y1="83.9681" y2="83.9681"/></g><!--class Academic--><g class="entity" data-qualified-name="Academic" data-source-line="8" id="ent0003"><rect fill="url(#gbhj5rhh56osb0)" height="74.5931" rx="4.1667" ry="4.1667" style="stroke:#304D6D;stroke-width:1.0417;" width="111.2432" x="17.7083" y="154.8021"/><rect fill="url(#gbhj5rhh56osb1)" height="34.1715" rx="4.1667" ry="4.1667" style="stroke:url(#gbhj5rhh56osb1);stroke-width:1.0417;" width="111.2432" x="17.7083" y="154.8021"/><rect fill="url(#gbhj5rhh56osb1)" height="4.1667" style="stroke:url(#gbhj5rhh56osb1);stroke-width:1.0417;" width="111.2432" x="17.7083" y="184.807"/><rect fill="none" height="74.5931" rx="4.1667" ry="4.1667" style="stroke:#304D6D;stroke-width:1.0417;" width="111.2432" x="17.7083" y="154.8021"/><ellipse cx="38.3435" cy="171.8879" fill="#B8B8B8" rx="10.4167" ry="10.4167" style="stroke:#6B6B6B;stroke-width:1.0417;"/><path d="M40.2478,176.3149 Q39.8247,176.5265 39.3526,176.6405 Q38.8806,176.7544 38.3761,176.7544 Q36.5206,176.7544 35.5441,175.55 Q34.5838,174.3293 34.5838,172.0343 Q34.5838,169.7231 35.5441,168.5187 Q36.5206,167.298 38.3761,167.298 Q38.8806,167.298 39.3526,167.4119 Q39.8409,167.5096 40.2478,167.7375 L40.2478,169.7394 Q39.7921,169.3162 39.3526,169.1209 Q38.9132,168.9093 38.4575,168.9093 Q37.4646,168.9093 36.9601,169.7069 Q36.4555,170.4881 36.4555,172.0343 Q36.4555,173.5643 36.9601,174.3455 Q37.4646,175.1268 38.4575,175.1268 Q38.9132,175.1268 39.3526,174.9315 Q39.7921,174.7362 40.2478,174.313 L40.2478,176.3149 Z " fill="#FFFFFF"/><text fill="#EEEEEE" font-family="'Verdana'" font-size="11.4583" lengthAdjust="spacing" textLength="56.1279" x="58.4384" y="175.8546">Academic</text><line style="stroke:#304D6D;stroke-width:1.0417;" x1="18.75" x2="127.9099" y1="188.9736" y2="188.9736"/><line style="stroke:#304D6D;stroke-width:1.0417;" x1="18.75" x2="127.9099" y1="197.307" y2="197.307"/><text fill="#EEEEEE" font-family="'Verdana'" font-size="11.4583" lengthAdjust="spacing" textLength="88.3265" x="29.1667" y="217.3179">+write_report()</text></g><!--class Admin--><g class="entity" data-qualified-name="Admin" data-source-line="12" id="ent0004"><rect fill="url(#gbhj5rhh56osb0)" height="74.5931" rx="4.1667" ry="4.1667" style="stroke:#304D6D;stroke-width:1.0417;" width="111.2432" x="165.625" y="154.8021"/><rect fill="url(#gbhj5rhh56osb1)" height="34.1715" rx="4.1667" ry="4.1667" style="stroke:url(#gbhj5rhh56osb1);stroke-width:1.0417;" width="111.2432" x="165.625" y="154.8021"/><rect fill="url(#gbhj5rhh56osb1)" height="4.1667" style="stroke:url(#gbhj5rhh56osb1);stroke-width:1.0417;" width="111.2432" x="165.625" y="184.807"/><rect fill="none" height="74.5931" rx="4.1667" ry="4.1667" style="stroke:#304D6D;stroke-width:1.0417;" width="111.2432" x="165.625" y="154.8021"/><ellipse cx="194.9941" cy="171.8879" fill="#B8B8B8" rx="10.4167" ry="10.4167" style="stroke:#6B6B6B;stroke-width:1.0417;"/><path d="M196.8984,176.3149 Q196.4752,176.5265 196.0032,176.6405 Q195.5312,176.7544 195.0267,176.7544 Q193.1712,176.7544 192.1946,175.55 Q191.2343,174.3293 191.2343,172.0343 Q191.2343,169.7231 192.1946,168.5187 Q193.1712,167.298 195.0267,167.298 Q195.5312,167.298 196.0032,167.4119 Q196.4915,167.5096 196.8984,167.7375 L196.8984,169.7394 Q196.4427,169.3162 196.0032,169.1209 Q195.5638,168.9093 195.108,168.9093 Q194.1152,168.9093 193.6106,169.7069 Q193.1061,170.4881 193.1061,172.0343 Q193.1061,173.5643 193.6106,174.3455 Q194.1152,175.1268 195.108,175.1268 Q195.5638,175.1268 196.0032,174.9315 Q196.4427,174.7362 196.8984,174.313 L196.8984,176.3149 Z " fill="#FFFFFF"/><text fill="#EEEEEE" font-family="'Verdana'" font-size="11.4583" lengthAdjust="spacing" textLength="36.7193" x="217.0298" y="175.8546">Admin</text><line style="stroke:#304D6D;stroke-width:1.0417;" x1="166.6667" x2="275.8265" y1="188.9736" y2="188.9736"/><line style="stroke:#304D6D;stroke-width:1.0417;" x1="166.6667" x2="275.8265" y1="197.307" y2="197.307"/><text fill="#EEEEEE" font-family="'Verdana'" font-size="11.4583" lengthAdjust="spacing" textLength="88.3265" x="177.0833" y="217.3179">+write_report()</text></g><!--class DeptHead--><g class="entity" data-qualified-name="DeptHead" data-source-line="16" id="ent0005"><rect fill="url(#gbhj5rhh56osb0)" height="50.8382" rx="4.1667" ry="4.1667" style="stroke:#304D6D;stroke-width:1.0417;" width="99.2661" x="97.6563" y="291.8958"/><rect fill="url(#gbhj5rhh56osb1)" height="34.1715" rx="4.1667" ry="4.1667" style="stroke:url(#gbhj5rhh56osb1);stroke-width:1.0417;" width="99.2661" x="97.6563" y="291.8958"/><rect fill="url(#gbhj5rhh56osb1)" height="4.1667" style="stroke:url(#gbhj5rhh56osb1);stroke-width:1.0417;" width="99.2661" x="97.6563" y="321.9007"/><rect fill="none" height="50.8382" rx="4.1667" ry="4.1667" style="stroke:#304D6D;stroke-width:1.0417;" width="99.2661" x="97.6563" y="291.8958"/><ellipse cx="112.2396" cy="308.9816" fill="#B8B8B8" rx="10.4167" ry="10.4167" style="stroke:#6B6B6B;stroke-width:1.0417;"/><path d="M114.1439,313.4087 Q113.7207,313.6203 113.2487,313.7342 Q112.7767,313.8481 112.2721,313.8481 Q110.4167,313.8481 109.4401,312.6437 Q108.4798,311.423 108.4798,309.1281 Q108.4798,306.8169 109.4401,305.6125 Q110.4167,304.3918 112.2721,304.3918 Q112.7767,304.3918 113.2487,304.5057 Q113.737,304.6034 114.1439,304.8312 L114.1439,306.8332 Q113.6882,306.41 113.2487,306.2147 Q112.8092,306.0031 112.3535,306.0031 Q111.3607,306.0031 110.8561,306.8006 Q110.3516,307.5819 110.3516,309.1281 Q110.3516,310.658 110.8561,311.4393 Q111.3607,312.2205 112.3535,312.2205 Q112.8092,312.2205 113.2487,312.0252 Q113.6882,311.8299 114.1439,311.4067 L114.1439,313.4087 Z " fill="#FFFFFF"/><text fill="#EEEEEE" font-family="'Verdana'" font-size="11.4583" lengthAdjust="spacing" textLength="57.5994" x="130.9896" y="312.9484">DeptHead</text><line style="stroke:#304D6D;stroke-width:1.0417;" x1="98.6979" x2="195.8806" y1="326.0674" y2="326.0674"/><line style="stroke:#304D6D;stroke-width:1.0417;" x1="98.6979" x2="195.8806" y1="334.4007" y2="334.4007"/></g><g class="entity" data-qualified-name="GMN10" data-source-line="23" id="ent0011"><path d="M233.4167,303.7813 L233.4167,313.1458 L197.3646,317.3125 L233.4167,321.4792 L233.4167,330.832 A4.1667,4.1667 0 0 0 237.5833,334.9987 L396.5819,334.9987 A4.1667,4.1667 0 0 0 400.7486,330.832 L400.7486,310.0313 L390.3319,299.6146 L237.5833,299.6146 A4.1667,4.1667 0 0 0 233.4167,303.7813" fill="url(#gbhj5rhh56osb2)" style="stroke:#246BAA;stroke-width:1.0417;"/><path d="M390.3319,299.6146 L390.3319,307.9479 A2.0833,2.0833 0 0 0 392.4153,310.0313 L400.7486,310.0313 L390.3319,299.6146" fill="url(#gbhj5rhh56osb2)" style="stroke:#246BAA;stroke-width:1.0417;"/><text fill="#FFFFFF" font-family="'Verdana'" font-size="12.5" lengthAdjust="spacing" textLength="135.0403" x="244.875" y="321.634">Which write_report()?</text></g><!--reverse link Person to Academic--><g class="link" data-entity-1="ent0002" data-entity-2="ent0003" data-link-type="extension" data-source-line="18" id="lnk6"><path codeLine="18" d="M118.2636,109.0282 C107.7428,128.2365 103.8854,135.2708 93.3646,154.4896" fill="none" id="Person-backto-Academic" style="stroke:#446E9B;stroke-width:3.125;"/><polygon fill="none" points="127.2708,92.5833,112.782,106.0258,123.7452,112.0306,127.2708,92.5833" style="stroke:#446E9B;stroke-width:3.125;"/></g><!--reverse link Person to Admin--><g class="link" data-entity-1="ent0002" data-entity-2="ent0004" data-link-type="extension" data-source-line="19" id="lnk7"><path codeLine="19" d="M176.3093,109.0282 C186.8301,128.2365 190.6875,135.2708 201.2188,154.4896" fill="none" id="Person-backto-Admin" style="stroke:#446E9B;stroke-width:3.125;"/><polygon fill="none" points="167.3021,92.5833,170.8277,112.0306,181.7909,106.0258,167.3021,92.5833" style="stroke:#446E9B;stroke-width:3.125;"/></g><!--reverse link Academic to DeptHead--><g class="link" data-entity-1="ent0003" data-entity-2="ent0005" data-link-type="extension" data-source-line="20" id="lnk8"><path codeLine="20" d="M104.9734,245.8258 C116.9734,265.8154 121.875,273.9583 132.5208,291.6771" fill="none" id="Academic-backto-DeptHead" style="stroke:#446E9B;stroke-width:3.125;"/><polygon fill="none" points="95.3229,229.75,99.6148,249.0426,110.332,242.6089,95.3229,229.75" style="stroke:#446E9B;stroke-width:3.125;"/></g><!--reverse link Admin to DeptHead--><g class="link" data-entity-1="ent0004" data-entity-2="ent0005" data-link-type="extension" data-source-line="21" id="lnk9"><path codeLine="21" d="M189.6038,245.8221 C177.5934,265.8117 172.7083,273.9583 162.0625,291.6771" fill="none" id="Admin-backto-DeptHead" style="stroke:#446E9B;stroke-width:3.125;"/><polygon fill="none" points="199.2604,229.75,184.2464,242.6032,194.9611,249.041,199.2604,229.75" style="stroke:#446E9B;stroke-width:3.125;"/></g><?plantuml-src VOwx2i9044Nx-OgnKoHWBO84BBGJB2nbiXdTmUo3tH71nx-BYGRJs9vpvzuPgMN7c2CPRgY2V1OVAP53qr3EfMgIwgAyCS7lvCOu0sWDRZdbuF4EY5DFZk7vDQMXcfsOpbsJA1yInv1qFFb9rKxy_yYAewwPQe3FsE9H57tz4BxRe5zkMN_UJGqP-A2CIKvMCHnxZdFSMp4MXpyjNm00?></g></svg>