<svg xmlns="http://www.w3.org/2000/svg" xmlns:xlink="http://www.w3.org/1999/xlink" contentStyleType="text/css" data-diagram-type="CLASS" height="485.4167px" preserveAspectRatio="none" style="width:341px;height:485px;" version="1.1" viewBox="0 0 341 485" width="341.6667px" zoomAndPan="magnify"><?plantuml 1.2026.3beta6?><defs><linearGradient id="g1t8v67h1f752e0" x1="50%" x2="50%" y1="0%" y2="100%"><stop offset="0%" stop-color="#7C9AB9"/><stop offset="100%" stop-color="#304D6D"/></linearGradient><linearGradient id="g1t8v67h1f752e1" x1="50%" x2="50%" y1="0%" y2="100%"><stop offset="0%" stop-color="#7C9AB9"/><stop offset="100%" stop-color="#446E9B"/></linearGradient></defs><g><!--class Person--><g class="entity" data-qualified-name="Person" data-source-line="5" id="ent0002"><rect fill="url(#g1t8v67h1f752e0)" height="98.348" rx="4.1667" ry="4.1667" style="stroke:#304D6D;stroke-width:1.0417;" width="80.5791" x="32.2396" y="17.7083"/><rect fill="url(#g1t8v67h1f752e1)" height="34.1715" rx="4.1667" ry="4.1667" style="stroke:url(#g1t8v67h1f752e1);stroke-width:1.0417;" width="80.5791" x="32.2396" y="17.7083"/><rect fill="url(#g1t8v67h1f752e1)" height="4.1667" style="stroke:url(#g1t8v67h1f752e1);stroke-width:1.0417;" width="80.5791" x="32.2396" y="47.7132"/><rect fill="none" height="98.348" rx="4.1667" ry="4.1667" style="stroke:#304D6D;stroke-width:1.0417;" width="80.5791" x="32.2396" y="17.7083"/><ellipse cx="46.8229" cy="34.7941" fill="#B8B8B8" rx="10.4167" ry="10.4167" style="stroke:#6B6B6B;stroke-width:1.0417;"/><path d="M48.7272,39.2212 Q48.304,39.4328 47.832,39.5467 Q47.36,39.6606 46.8555,39.6606 Q45,39.6606 44.0234,38.4562 Q43.0632,37.2355 43.0632,34.9406 Q43.0632,32.6294 44.0234,31.425 Q45,30.2043 46.8555,30.2043 Q47.36,30.2043 47.832,30.3182 Q48.3203,30.4159 48.7272,30.6437 L48.7272,32.6457 Q48.2715,32.2225 47.832,32.0272 Q47.3926,31.8156 46.9368,31.8156 Q45.944,31.8156 45.4395,32.6131 Q44.9349,33.3944 44.9349,34.9406 Q44.9349,36.4705 45.4395,37.2518 Q45.944,38.033 46.9368,38.033 Q47.3926,38.033 47.832,37.8377 Q48.2715,37.6424 48.7272,37.2192 L48.7272,39.2212 Z " fill="#FFFFFF"/><text fill="#EEEEEE" font-family="'Verdana'" font-size="11.4583" lengthAdjust="spacing" textLength="38.9125" x="65.5729" y="38.7609">Person</text><line style="stroke:#304D6D;stroke-width:1.0417;" x1="33.2813" x2="111.777" y1="51.8799" y2="51.8799"/><text fill="#EEEEEE" font-family="'Verdana'" font-size="11.4583" lengthAdjust="spacing" textLength="42.0959" x="43.6979" y="71.8908">+name</text><text fill="#EEEEEE" font-family="'Verdana'" font-size="11.4583" lengthAdjust="spacing" textLength="41.212" x="43.6979" y="95.6457">+office</text><line style="stroke:#304D6D;stroke-width:1.0417;" x1="33.2813" x2="111.777" y1="107.723" y2="107.723"/></g><!--class Paper--><g class="entity" data-qualified-name="Paper" data-source-line="9" id="ent0003"><rect fill="url(#g1t8v67h1f752e0)" height="98.348" rx="4.1667" ry="4.1667" style="stroke:#304D6D;stroke-width:1.0417;" width="74.6318" x="149.8021" y="17.7083"/><rect fill="url(#g1t8v67h1f752e1)" height="34.1715" rx="4.1667" ry="4.1667" style="stroke:url(#g1t8v67h1f752e1);stroke-width:1.0417;" width="74.6318" x="149.8021" y="17.7083"/><rect fill="url(#g1t8v67h1f752e1)" height="4.1667" style="stroke:url(#g1t8v67h1f752e1);stroke-width:1.0417;" width="74.6318" x="149.8021" y="47.7132"/><rect fill="none" height="98.348" rx="4.1667" ry="4.1667" style="stroke:#304D6D;stroke-width:1.0417;" width="74.6318" x="149.8021" y="17.7083"/><ellipse cx="164.3854" cy="34.7941" fill="#B8B8B8" rx="10.4167" ry="10.4167" style="stroke:#6B6B6B;stroke-width:1.0417;"/><path d="M166.2897,39.2212 Q165.8665,39.4328 165.3945,39.5467 Q164.9225,39.6606 164.418,39.6606 Q162.5625,39.6606 161.5859,38.4562 Q160.6257,37.2355 160.6257,34.9406 Q160.6257,32.6294 161.5859,31.425 Q162.5625,30.2043 164.418,30.2043 Q164.9225,30.2043 165.3945,30.3182 Q165.8828,30.4159 166.2897,30.6437 L166.2897,32.6457 Q165.834,32.2225 165.3945,32.0272 Q164.9551,31.8156 164.4993,31.8156 Q163.5065,31.8156 163.002,32.6131 Q162.4974,33.3944 162.4974,34.9406 Q162.4974,36.4705 163.002,37.2518 Q163.5065,38.033 164.4993,38.033 Q164.9551,38.033 165.3945,37.8377 Q165.834,37.6424 166.2897,37.2192 L166.2897,39.2212 Z " fill="#FFFFFF"/><text fill="#EEEEEE" font-family="'Verdana'" font-size="11.4583" lengthAdjust="spacing" textLength="32.9651" x="183.1354" y="38.7609">Paper</text><line style="stroke:#304D6D;stroke-width:1.0417;" x1="150.8438" x2="223.3922" y1="51.8799" y2="51.8799"/><text fill="#EEEEEE" font-family="'Verdana'" font-size="11.4583" lengthAdjust="spacing" textLength="32.0028" x="161.2604" y="71.8908">+title</text><text fill="#EEEEEE" font-family="'Verdana'" font-size="11.4583" lengthAdjust="spacing" textLength="32.4168" x="161.2604" y="95.6457">+text</text><line style="stroke:#304D6D;stroke-width:1.0417;" x1="150.8438" x2="223.3922" y1="107.723" y2="107.723"/></g><!--class Admin--><g class="entity" data-qualified-name="Admin" data-source-line="15" id="ent0004"><rect fill="url(#g1t8v67h1f752e0)" height="50.8382" rx="4.1667" ry="4.1667" style="stroke:#304D6D;stroke-width:1.0417;" width="78.3859" x="17.7083" y="228.3542"/><rect fill="url(#g1t8v67h1f752e1)" height="34.1715" rx="4.1667" ry="4.1667" style="stroke:url(#g1t8v67h1f752e1);stroke-width:1.0417;" width="78.3859" x="17.7083" y="228.3542"/><rect fill="url(#g1t8v67h1f752e1)" height="4.1667" style="stroke:url(#g1t8v67h1f752e1);stroke-width:1.0417;" width="78.3859" x="17.7083" y="258.359"/><rect fill="none" height="50.8382" rx="4.1667" ry="4.1667" style="stroke:#304D6D;stroke-width:1.0417;" width="78.3859" x="17.7083" y="228.3542"/><ellipse cx="32.2917" cy="245.4399" fill="#B8B8B8" rx="10.4167" ry="10.4167" style="stroke:#6B6B6B;stroke-width:1.0417;"/><path d="M34.196,249.867 Q33.7728,250.0786 33.3008,250.1925 Q32.8288,250.3065 32.3242,250.3065 Q30.4688,250.3065 29.4922,249.1021 Q28.5319,247.8813 28.5319,245.5864 Q28.5319,243.2752 29.4922,242.0708 Q30.4688,240.8501 32.3242,240.8501 Q32.8288,240.8501 33.3008,240.964 Q33.7891,241.0617 34.196,241.2896 L34.196,243.2915 Q33.7402,242.8683 33.3008,242.673 Q32.8613,242.4614 32.4056,242.4614 Q31.4128,242.4614 30.9082,243.259 Q30.4036,244.0402 30.4036,245.5864 Q30.4036,247.1164 30.9082,247.8976 Q31.4128,248.6789 32.4056,248.6789 Q32.8613,248.6789 33.3008,248.4836 Q33.7402,248.2882 34.196,247.8651 L34.196,249.867 Z " fill="#FFFFFF"/><text fill="#EEEEEE" font-family="'Verdana'" font-size="11.4583" lengthAdjust="spacing" textLength="36.7193" x="51.0417" y="249.4067">Admin</text><line style="stroke:#304D6D;stroke-width:1.0417;" x1="18.75" x2="95.0526" y1="262.5257" y2="262.5257"/><line style="stroke:#304D6D;stroke-width:1.0417;" x1="18.75" x2="95.0526" y1="270.859" y2="270.859"/></g><!--class Academic--><g class="entity" data-qualified-name="Academic" data-source-line="16" id="ent0005"><rect fill="url(#g1t8v67h1f752e0)" height="98.348" rx="4.1667" ry="4.1667" style="stroke:#304D6D;stroke-width:1.0417;" width="109.3241" x="132.4479" y="204.5938"/><rect fill="url(#g1t8v67h1f752e1)" height="34.1715" rx="4.1667" ry="4.1667" style="stroke:url(#g1t8v67h1f752e1);stroke-width:1.0417;" width="109.3241" x="132.4479" y="204.5938"/><rect fill="url(#g1t8v67h1f752e1)" height="4.1667" style="stroke:url(#g1t8v67h1f752e1);stroke-width:1.0417;" width="109.3241" x="132.4479" y="234.5986"/><rect fill="none" height="98.348" rx="4.1667" ry="4.1667" style="stroke:#304D6D;stroke-width:1.0417;" width="109.3241" x="132.4479" y="204.5938"/><ellipse cx="152.2195" cy="221.6795" fill="#B8B8B8" rx="10.4167" ry="10.4167" style="stroke:#6B6B6B;stroke-width:1.0417;"/><path d="M154.1238,226.1066 Q153.7007,226.3182 153.2287,226.4321 Q152.7567,226.5461 152.2521,226.5461 Q150.3966,226.5461 149.4201,225.3416 Q148.4598,224.1209 148.4598,221.826 Q148.4598,219.5148 149.4201,218.3104 Q150.3966,217.0897 152.2521,217.0897 Q152.7567,217.0897 153.2287,217.2036 Q153.7169,217.3013 154.1238,217.5291 L154.1238,219.5311 Q153.6681,219.1079 153.2287,218.9126 Q152.7892,218.701 152.3335,218.701 Q151.3406,218.701 150.8361,219.4985 Q150.3315,220.2798 150.3315,221.826 Q150.3315,223.356 150.8361,224.1372 Q151.3406,224.9185 152.3335,224.9185 Q152.7892,224.9185 153.2287,224.7231 Q153.6681,224.5278 154.1238,224.1047 L154.1238,226.1066 Z " fill="#FFFFFF"/><text fill="#EEEEEE" font-family="'Verdana'" font-size="11.4583" lengthAdjust="spacing" textLength="56.1279" x="172.1225" y="225.6463">Academic</text><line style="stroke:#304D6D;stroke-width:1.0417;" x1="133.4896" x2="240.7304" y1="238.7653" y2="238.7653"/><text fill="#EEEEEE" font-family="'Verdana'" font-size="11.4583" lengthAdjust="spacing" textLength="48.8993" x="143.9063" y="258.7762">+papers</text><line style="stroke:#304D6D;stroke-width:1.0417;" x1="133.4896" x2="240.7304" y1="270.8535" y2="270.8535"/><text fill="#EEEEEE" font-family="'Verdana'" font-size="11.4583" lengthAdjust="spacing" textLength="86.4075" x="143.9063" y="290.8644">+write_paper()</text></g><!--class PhDStudent--><g class="entity" data-qualified-name="PhDStudent" data-source-line="20" id="ent0006"><rect fill="url(#g1t8v67h1f752e0)" height="74.5931" rx="4.1667" ry="4.1667" style="stroke:#304D6D;stroke-width:1.0417;" width="109.7677" x="57.2292" y="378.3646"/><rect fill="url(#g1t8v67h1f752e1)" height="34.1715" rx="4.1667" ry="4.1667" style="stroke:url(#g1t8v67h1f752e1);stroke-width:1.0417;" width="109.7677" x="57.2292" y="378.3646"/><rect fill="url(#g1t8v67h1f752e1)" height="4.1667" style="stroke:url(#g1t8v67h1f752e1);stroke-width:1.0417;" width="109.7677" x="57.2292" y="408.3695"/><rect fill="none" height="74.5931" rx="4.1667" ry="4.1667" style="stroke:#304D6D;stroke-width:1.0417;" width="109.7677" x="57.2292" y="378.3646"/><ellipse cx="71.8125" cy="395.4504" fill="#B8B8B8" rx="10.4167" ry="10.4167" style="stroke:#6B6B6B;stroke-width:1.0417;"/><path d="M73.7168,399.8774 Q73.2936,400.089 72.8216,400.203 Q72.3496,400.3169 71.8451,400.3169 Q69.9896,400.3169 69.013,399.1125 Q68.0527,397.8918 68.0527,395.5968 Q68.0527,393.2856 69.013,392.0812 Q69.9896,390.8605 71.8451,390.8605 Q72.3496,390.8605 72.8216,390.9744 Q73.3099,391.0721 73.7168,391.3 L73.7168,393.3019 Q73.2611,392.8787 72.8216,392.6834 Q72.3822,392.4718 71.9264,392.4718 Q70.9336,392.4718 70.429,393.2694 Q69.9245,394.0506 69.9245,395.5968 Q69.9245,397.1268 70.429,397.908 Q70.9336,398.6893 71.9264,398.6893 Q72.3822,398.6893 72.8216,398.494 Q73.2611,398.2987 73.7168,397.8755 L73.7168,399.8774 Z " fill="#FFFFFF"/><text fill="#EEEEEE" font-family="'Verdana'" font-size="11.4583" lengthAdjust="spacing" textLength="68.101" x="90.5625" y="399.4171">PhDStudent</text><line style="stroke:#304D6D;stroke-width:1.0417;" x1="58.2708" x2="165.9552" y1="412.5361" y2="412.5361"/><line style="stroke:#304D6D;stroke-width:1.0417;" x1="58.2708" x2="165.9552" y1="420.8695" y2="420.8695"/><text fill="#EEEEEE" font-family="'Verdana'" font-size="11.4583" lengthAdjust="spacing" textLength="70.6467" x="68.6875" y="440.8804">+graduate()</text></g><!--class Lecturer--><g class="entity" data-qualified-name="Lecturer" data-source-line="23" id="ent0007"><rect fill="url(#g1t8v67h1f752e0)" height="98.348" rx="4.1667" ry="4.1667" style="stroke:#304D6D;stroke-width:1.0417;" width="117.6158" x="203.3021" y="366.4896"/><rect fill="url(#g1t8v67h1f752e1)" height="34.1715" rx="4.1667" ry="4.1667" style="stroke:url(#g1t8v67h1f752e1);stroke-width:1.0417;" width="117.6158" x="203.3021" y="366.4896"/><rect fill="url(#g1t8v67h1f752e1)" height="4.1667" style="stroke:url(#g1t8v67h1f752e1);stroke-width:1.0417;" width="117.6158" x="203.3021" y="396.4945"/><rect fill="none" height="98.348" rx="4.1667" ry="4.1667" style="stroke:#304D6D;stroke-width:1.0417;" width="117.6158" x="203.3021" y="366.4896"/><ellipse cx="230.4808" cy="383.5754" fill="#B8B8B8" rx="10.4167" ry="10.4167" style="stroke:#6B6B6B;stroke-width:1.0417;"/><path d="M232.3851,388.0024 Q231.9619,388.214 231.4899,388.328 Q231.0179,388.4419 230.5133,388.4419 Q228.6579,388.4419 227.6813,387.2375 Q226.721,386.0168 226.721,383.7218 Q226.721,381.4106 227.6813,380.2062 Q228.6579,378.9855 230.5133,378.9855 Q231.0179,378.9855 231.4899,379.0994 Q231.9782,379.1971 232.3851,379.425 L232.3851,381.4269 Q231.9294,381.0037 231.4899,380.8084 Q231.0504,380.5968 230.5947,380.5968 Q229.6019,380.5968 229.0973,381.3944 Q228.5928,382.1756 228.5928,383.7218 Q228.5928,385.2518 229.0973,386.033 Q229.6019,386.8143 230.5947,386.8143 Q231.0504,386.8143 231.4899,386.619 Q231.9294,386.4237 232.3851,386.0005 L232.3851,388.0024 Z " fill="#FFFFFF"/><text fill="#EEEEEE" font-family="'Verdana'" font-size="11.4583" lengthAdjust="spacing" textLength="47.9594" x="252.0298" y="387.5421">Lecturer</text><line style="stroke:#304D6D;stroke-width:1.0417;" x1="204.3438" x2="319.8762" y1="400.6611" y2="400.6611"/><text fill="#EEEEEE" font-family="'Verdana'" font-size="11.4583" lengthAdjust="spacing" textLength="53.8732" x="214.7604" y="420.672">+courses</text><line style="stroke:#304D6D;stroke-width:1.0417;" x1="204.3438" x2="319.8762" y1="432.7493" y2="432.7493"/><text fill="#EEEEEE" font-family="'Verdana'" font-size="11.4583" lengthAdjust="spacing" textLength="94.6991" x="214.7604" y="452.7602">+teach_course()</text></g><!--link Person to Paper--><!--reverse link Person to Admin--><g class="link" data-entity-1="ent0002" data-entity-2="ent0004" data-link-type="extension" data-source-line="30" id="lnk9"><path codeLine="30" d="M66.8453,135.1623 C63.8037,171.0894 61.375,199.8646 58.9792,228.2396" fill="none" id="Person-backto-Admin" style="stroke:#446E9B;stroke-width:3.125;"/><polygon fill="none" points="68.4271,116.4792,60.6176,134.6351,73.073,135.6896,68.4271,116.4792" style="stroke:#446E9B;stroke-width:3.125;"/></g><!--reverse link Person to Academic--><g class="link" data-entity-1="ent0002" data-entity-2="ent0005" data-link-type="extension" data-source-line="31" id="lnk10"><path codeLine="31" d="M112.5193,132.4125 C129.3006,159.4646 140.2396,177.125 157.0104,204.1771" fill="none" id="Person-backto-Academic" style="stroke:#446E9B;stroke-width:3.125;"/><polygon fill="none" points="102.6354,116.4792,107.2082,135.7071,117.8305,129.1178,102.6354,116.4792" style="stroke:#446E9B;stroke-width:3.125;"/></g><!--reverse link Academic to PhDStudent--><g class="link" data-entity-1="ent0005" data-entity-2="ent0006" data-link-type="extension" data-source-line="32" id="lnk11"><path codeLine="32" d="M156.4438,320.1628 C145.1521,344.2357 139.6875,355.875 129.2604,378.0833" fill="none" id="Academic-backto-PhDStudent" style="stroke:#446E9B;stroke-width:3.125;"/><polygon fill="none" points="164.4063,303.1875,150.7853,317.5087,162.1022,322.817,164.4063,303.1875" style="stroke:#446E9B;stroke-width:3.125;"/></g><!--reverse link Academic to Lecturer--><g class="link" data-entity-1="ent0005" data-entity-2="ent0007" data-link-type="extension" data-source-line="33" id="lnk12"><path codeLine="33" d="M217.787,320.1621 C227.1411,340.0996 230,346.1771 239.3542,366.125" fill="none" id="Academic-backto-Lecturer" style="stroke:#446E9B;stroke-width:3.125;"/><polygon fill="none" points="209.8229,303.1875,212.1288,322.8168,223.4452,317.5074,209.8229,303.1875" style="stroke:#446E9B;stroke-width:3.125;"/></g><!--reverse link Academic to Paper--><g class="link" data-entity-1="ent0005" data-entity-2="ent0003" data-link-type="composition" data-source-line="34" id="lnk13"><path codeLine="34" d="M187.1146,191.6771 C187.1146,164.625 187.1146,143.5313 187.1146,116.4792" fill="none" id="Academic-backto-Paper" style="stroke:#446E9B;stroke-width:3.125;"/><polygon fill="#446E9B" points="187.1146,204.1771,191.2813,197.9271,187.1146,191.6771,182.9479,197.9271,187.1146,204.1771" style="stroke:#446E9B;stroke-width:3.125;"/><text fill="#FFFFFF" font-family="'Verdana'" font-size="12.5" lengthAdjust="spacing" textLength="37.9395" x="193.3646" y="165.1549">writes</text></g><?plantuml-src NOz1ImCn48Nl-HNZhRe4UXOl1I-2XqAF8cKwcNQ3csH99YXg_xkxITfLRozllZTvSoCzEuOq8l601vNUh1yneWCQCAMDIBI7BFn4mU_i9yDQAGaddc8HlXHK3BOSK_350EWyEgug78-MPdrUK1nRT9gBbQ6XmXzImBDIbTmOP_r54nfsbagm6-STQLRlqGhlotjrEqNR7_tZJh9XBvK_HJGPXNyXpqoIOslIKSWnSTaeZDJlgr5urOxJyQMtPbhwgkiHryd3jzQjxH-dTLRNyiLUolqRN2ejzfrkNy4zb4lJ3m00?></g></svg>