<svg xmlns="http://www.w3.org/2000/svg" xmlns:xlink="http://www.w3.org/1999/xlink" contentStyleType="text/css" data-diagram-type="CLASS" height="427.875px" preserveAspectRatio="none" style="width:714px;height:427px;" version="1.1" viewBox="0 0 714 427" width="714px" zoomAndPan="magnify"><?plantuml 1.2026.3beta6?><defs><linearGradient id="g2zlb41yc6hnd0" x1="50%" x2="50%" y1="0%" y2="100%"><stop offset="0%" stop-color="#7C9AB9"/><stop offset="100%" stop-color="#304D6D"/></linearGradient><linearGradient id="g2zlb41yc6hnd1" x1="50%" x2="50%" y1="0%" y2="100%"><stop offset="0%" stop-color="#7C9AB9"/><stop offset="100%" stop-color="#446E9B"/></linearGradient></defs><g><!--class TemperatureModel--><g class="entity" data-qualified-name="TemperatureModel" data-source-line="6" id="ent0002"><rect fill="url(#g2zlb41yc6hnd0)" height="62.6582" rx="3.5" ry="3.5" style="stroke:#304D6D;stroke-width:0.875;" width="205.8895" x="248.5" y="231.7263"/><rect fill="url(#g2zlb41yc6hnd1)" height="28.7041" rx="3.5" ry="3.5" style="stroke:url(#g2zlb41yc6hnd1);stroke-width:0.875;" width="205.8895" x="248.5" y="231.7263"/><rect fill="url(#g2zlb41yc6hnd1)" height="3.5" style="stroke:url(#g2zlb41yc6hnd1);stroke-width:0.875;" width="205.8895" x="248.5" y="256.9304"/><rect fill="none" height="62.6582" rx="3.5" ry="3.5" style="stroke:#304D6D;stroke-width:0.875;" width="205.8895" x="248.5" y="231.7263"/><ellipse cx="297.7123" cy="246.0783" fill="#4CBC5C" rx="8.75" ry="8.75" style="stroke:#32A243;stroke-width:0.875;"/><path d="M297.3705,243.5217 L296.6596,246.6525 L298.0952,246.6525 L297.3705,243.5217 Z M296.4545,242.1408 L298.3002,242.1408 L300.3647,249.7971 L298.8471,249.7971 L298.3823,247.9103 L296.3588,247.9103 L295.894,249.7971 L294.3764,249.7971 L296.4545,242.1408 Z " fill="#FFFFFF"/><text fill="#EEEEEE" font-family="'Verdana'" font-size="9.625" font-style="italic" lengthAdjust="spacing" textLength="91.7148" x="318.7123" y="249.4104">TemperatureModel</text><line style="stroke:#304D6D;stroke-width:0.875;" x1="249.375" x2="453.5145" y1="260.4304" y2="260.4304"/><line style="stroke:#304D6D;stroke-width:0.875;" x1="249.375" x2="453.5145" y1="267.4304" y2="267.4304"/><text fill="#EEEEEE" font-family="'Verdana'" font-size="9.625" font-style="italic" lengthAdjust="spacing" textLength="186.6395" x="258.125" y="284.2395">+calculate_temperature(gas, photons)</text></g><!--class MatthewsModel--><g class="entity" data-qualified-name="MatthewsModel" data-source-line="9" id="ent0003"><rect fill="url(#g2zlb41yc6hnd0)" height="62.6582" rx="3.5" ry="3.5" style="stroke:#304D6D;stroke-width:0.875;" width="205.8895" x="14.875" y="347.76"/><rect fill="url(#g2zlb41yc6hnd1)" height="28.7041" rx="3.5" ry="3.5" style="stroke:url(#g2zlb41yc6hnd1);stroke-width:0.875;" width="205.8895" x="14.875" y="347.76"/><rect fill="url(#g2zlb41yc6hnd1)" height="3.5" style="stroke:url(#g2zlb41yc6hnd1);stroke-width:0.875;" width="205.8895" x="14.875" y="372.9641"/><rect fill="none" height="62.6582" rx="3.5" ry="3.5" style="stroke:#304D6D;stroke-width:0.875;" width="205.8895" x="14.875" y="347.76"/><ellipse cx="72.1661" cy="362.1121" fill="#B8B8B8" rx="8.75" ry="8.75" style="stroke:#6B6B6B;stroke-width:0.875;"/><path d="M73.7657,365.8308 Q73.4103,366.0085 73.0138,366.1042 Q72.6173,366.1999 72.1935,366.1999 Q70.6349,366.1999 69.8146,365.1882 Q69.0079,364.1628 69.0079,362.2351 Q69.0079,360.2937 69.8146,359.282 Q70.6349,358.2566 72.1935,358.2566 Q72.6173,358.2566 73.0138,358.3523 Q73.424,358.4343 73.7657,358.6257 L73.7657,360.3074 Q73.3829,359.9519 73.0138,359.7878 Q72.6447,359.6101 72.2618,359.6101 Q71.4279,359.6101 71.004,360.28 Q70.5802,360.9363 70.5802,362.2351 Q70.5802,363.5203 71.004,364.1765 Q71.4279,364.8328 72.2618,364.8328 Q72.6447,364.8328 73.0138,364.6687 Q73.3829,364.5046 73.7657,364.1492 L73.7657,365.8308 Z " fill="#FFFFFF"/><text fill="#EEEEEE" font-family="'Verdana'" font-size="9.625" lengthAdjust="spacing" textLength="75.5572" x="93.1661" y="365.4441">MatthewsModel</text><line style="stroke:#304D6D;stroke-width:0.875;" x1="15.75" x2="219.8895" y1="376.4641" y2="376.4641"/><line style="stroke:#304D6D;stroke-width:0.875;" x1="15.75" x2="219.8895" y1="383.4641" y2="383.4641"/><text fill="#EEEEEE" font-family="'Verdana'" font-size="9.625" lengthAdjust="spacing" textLength="186.6395" x="24.5" y="400.2732">+calculate_temperature(gas, photons)</text></g><!--class SimsModel--><g class="entity" data-qualified-name="SimsModel" data-source-line="12" id="ent0004"><rect fill="url(#g2zlb41yc6hnd0)" height="62.6582" rx="3.5" ry="3.5" style="stroke:#304D6D;stroke-width:0.875;" width="205.8895" x="251.125" y="347.76"/><rect fill="url(#g2zlb41yc6hnd1)" height="28.7041" rx="3.5" ry="3.5" style="stroke:url(#g2zlb41yc6hnd1);stroke-width:0.875;" width="205.8895" x="251.125" y="347.76"/><rect fill="url(#g2zlb41yc6hnd1)" height="3.5" style="stroke:url(#g2zlb41yc6hnd1);stroke-width:0.875;" width="205.8895" x="251.125" y="372.9641"/><rect fill="none" height="62.6582" rx="3.5" ry="3.5" style="stroke:#304D6D;stroke-width:0.875;" width="205.8895" x="251.125" y="347.76"/><ellipse cx="320.1584" cy="362.1121" fill="#B8B8B8" rx="8.75" ry="8.75" style="stroke:#6B6B6B;stroke-width:0.875;"/><path d="M321.758,365.8308 Q321.4025,366.0085 321.006,366.1042 Q320.6095,366.1999 320.1857,366.1999 Q318.6271,366.1999 317.8068,365.1882 Q317.0002,364.1628 317.0002,362.2351 Q317.0002,360.2937 317.8068,359.282 Q318.6271,358.2566 320.1857,358.2566 Q320.6095,358.2566 321.006,358.3523 Q321.4162,358.4343 321.758,358.6257 L321.758,360.3074 Q321.3752,359.9519 321.006,359.7878 Q320.6369,359.6101 320.2541,359.6101 Q319.4201,359.6101 318.9962,360.28 Q318.5724,360.9363 318.5724,362.2351 Q318.5724,363.5203 318.9962,364.1765 Q319.4201,364.8328 320.2541,364.8328 Q320.6369,364.8328 321.006,364.6687 Q321.3752,364.5046 321.758,364.1492 L321.758,365.8308 Z " fill="#FFFFFF"/><text fill="#EEEEEE" font-family="'Verdana'" font-size="9.625" lengthAdjust="spacing" textLength="52.0728" x="341.1584" y="365.4441">SimsModel</text><line style="stroke:#304D6D;stroke-width:0.875;" x1="252" x2="456.1395" y1="376.4641" y2="376.4641"/><line style="stroke:#304D6D;stroke-width:0.875;" x1="252" x2="456.1395" y1="383.4641" y2="383.4641"/><text fill="#EEEEEE" font-family="'Verdana'" font-size="9.625" lengthAdjust="spacing" textLength="186.6395" x="260.75" y="400.2732">+calculate_temperature(gas, photons)</text></g><!--class PhotonSource--><g class="entity" data-qualified-name="PhotonSource" data-source-line="16" id="ent0005"><rect fill="url(#g2zlb41yc6hnd0)" height="62.6582" rx="3.5" ry="3.5" style="stroke:#304D6D;stroke-width:0.875;" width="101.8251" x="485.1613" y="231.7263"/><rect fill="url(#g2zlb41yc6hnd1)" height="28.7041" rx="3.5" ry="3.5" style="stroke:url(#g2zlb41yc6hnd1);stroke-width:0.875;" width="101.8251" x="485.1613" y="231.7263"/><rect fill="url(#g2zlb41yc6hnd1)" height="3.5" style="stroke:url(#g2zlb41yc6hnd1);stroke-width:0.875;" width="101.8251" x="485.1613" y="256.9304"/><rect fill="none" height="62.6582" rx="3.5" ry="3.5" style="stroke:#304D6D;stroke-width:0.875;" width="101.8251" x="485.1613" y="231.7263"/><ellipse cx="497.4113" cy="246.0783" fill="#4CBC5C" rx="8.75" ry="8.75" style="stroke:#32A243;stroke-width:0.875;"/><path d="M497.0695,243.5217 L496.3585,246.6525 L497.7941,246.6525 L497.0695,243.5217 Z M496.1534,242.1408 L497.9991,242.1408 L500.0636,249.7971 L498.546,249.7971 L498.0812,247.9103 L496.0577,247.9103 L495.5929,249.7971 L494.0753,249.7971 L496.1534,242.1408 Z " fill="#FFFFFF"/><text fill="#EEEEEE" font-family="'Verdana'" font-size="9.625" font-style="italic" lengthAdjust="spacing" textLength="66.8251" x="513.1613" y="249.4104">PhotonSource</text><line style="stroke:#304D6D;stroke-width:0.875;" x1="486.0363" x2="586.1114" y1="260.4304" y2="260.4304"/><line style="stroke:#304D6D;stroke-width:0.875;" x1="486.0363" x2="586.1114" y1="267.4304" y2="267.4304"/><text fill="#EEEEEE" font-family="'Verdana'" font-size="9.625" font-style="italic" lengthAdjust="spacing" textLength="59.1787" x="494.7863" y="284.2395">+generate()</text></g><!--class BlackHole--><g class="entity" data-qualified-name="BlackHole" data-source-line="19" id="ent0006"><rect fill="url(#g2zlb41yc6hnd0)" height="62.6582" rx="3.5" ry="3.5" style="stroke:#304D6D;stroke-width:0.875;" width="82.7631" x="492.065" y="347.76"/><rect fill="url(#g2zlb41yc6hnd1)" height="28.7041" rx="3.5" ry="3.5" style="stroke:url(#g2zlb41yc6hnd1);stroke-width:0.875;" width="82.7631" x="492.065" y="347.76"/><rect fill="url(#g2zlb41yc6hnd1)" height="3.5" style="stroke:url(#g2zlb41yc6hnd1);stroke-width:0.875;" width="82.7631" x="492.065" y="372.9641"/><rect fill="none" height="62.6582" rx="3.5" ry="3.5" style="stroke:#304D6D;stroke-width:0.875;" width="82.7631" x="492.065" y="347.76"/><ellipse cx="504.315" cy="362.1121" fill="#B8B8B8" rx="8.75" ry="8.75" style="stroke:#6B6B6B;stroke-width:0.875;"/><path d="M505.9146,365.8308 Q505.5591,366.0085 505.1627,366.1042 Q504.7662,366.1999 504.3423,366.1999 Q502.7838,366.1999 501.9634,365.1882 Q501.1568,364.1628 501.1568,362.2351 Q501.1568,360.2937 501.9634,359.282 Q502.7838,358.2566 504.3423,358.2566 Q504.7662,358.2566 505.1627,358.3523 Q505.5728,358.4343 505.9146,358.6257 L505.9146,360.3074 Q505.5318,359.9519 505.1627,359.7878 Q504.7935,359.6101 504.4107,359.6101 Q503.5767,359.6101 503.1529,360.28 Q502.7291,360.9363 502.7291,362.2351 Q502.7291,363.5203 503.1529,364.1765 Q503.5767,364.8328 504.4107,364.8328 Q504.7935,364.8328 505.1627,364.6687 Q505.5318,364.5046 505.9146,364.1492 L505.9146,365.8308 Z " fill="#FFFFFF"/><text fill="#EEEEEE" font-family="'Verdana'" font-size="9.625" lengthAdjust="spacing" textLength="47.7631" x="520.065" y="365.4441">BlackHole</text><line style="stroke:#304D6D;stroke-width:0.875;" x1="492.94" x2="573.9531" y1="376.4641" y2="376.4641"/><line style="stroke:#304D6D;stroke-width:0.875;" x1="492.94" x2="573.9531" y1="383.4641" y2="383.4641"/><text fill="#EEEEEE" font-family="'Verdana'" font-size="9.625" lengthAdjust="spacing" textLength="59.1787" x="501.69" y="400.2732">+generate()</text></g><!--class WhiteDwarf--><g class="entity" data-qualified-name="WhiteDwarf" data-source-line="22" id="ent0007"><rect fill="url(#g2zlb41yc6hnd0)" height="62.6582" rx="3.5" ry="3.5" style="stroke:#304D6D;stroke-width:0.875;" width="91.514" x="605.815" y="347.76"/><rect fill="url(#g2zlb41yc6hnd1)" height="28.7041" rx="3.5" ry="3.5" style="stroke:url(#g2zlb41yc6hnd1);stroke-width:0.875;" width="91.514" x="605.815" y="347.76"/><rect fill="url(#g2zlb41yc6hnd1)" height="3.5" style="stroke:url(#g2zlb41yc6hnd1);stroke-width:0.875;" width="91.514" x="605.815" y="372.9641"/><rect fill="none" height="62.6582" rx="3.5" ry="3.5" style="stroke:#304D6D;stroke-width:0.875;" width="91.514" x="605.815" y="347.76"/><ellipse cx="618.065" cy="362.1121" fill="#B8B8B8" rx="8.75" ry="8.75" style="stroke:#6B6B6B;stroke-width:0.875;"/><path d="M619.6646,365.8308 Q619.3091,366.0085 618.9127,366.1042 Q618.5162,366.1999 618.0923,366.1999 Q616.5338,366.1999 615.7134,365.1882 Q614.9068,364.1628 614.9068,362.2351 Q614.9068,360.2937 615.7134,359.282 Q616.5338,358.2566 618.0923,358.2566 Q618.5162,358.2566 618.9127,358.3523 Q619.3228,358.4343 619.6646,358.6257 L619.6646,360.3074 Q619.2818,359.9519 618.9127,359.7878 Q618.5435,359.6101 618.1607,359.6101 Q617.3267,359.6101 616.9029,360.28 Q616.4791,360.9363 616.4791,362.2351 Q616.4791,363.5203 616.9029,364.1765 Q617.3267,364.8328 618.1607,364.8328 Q618.5435,364.8328 618.9127,364.6687 Q619.2818,364.5046 619.6646,364.1492 L619.6646,365.8308 Z " fill="#FFFFFF"/><text fill="#EEEEEE" font-family="'Verdana'" font-size="9.625" lengthAdjust="spacing" textLength="56.514" x="633.815" y="365.4441">WhiteDwarf</text><line style="stroke:#304D6D;stroke-width:0.875;" x1="606.69" x2="696.454" y1="376.4641" y2="376.4641"/><line style="stroke:#304D6D;stroke-width:0.875;" x1="606.69" x2="696.454" y1="383.4641" y2="383.4641"/><text fill="#EEEEEE" font-family="'Verdana'" font-size="9.625" lengthAdjust="spacing" textLength="59.1787" x="615.44" y="400.2732">+generate()</text></g><!--class GasCloud--><g class="entity" data-qualified-name="GasCloud" data-source-line="26" id="ent0008"><rect fill="url(#g2zlb41yc6hnd0)" height="142.4746" rx="3.5" ry="3.5" style="stroke:#304D6D;stroke-width:0.875;" width="216.2335" x="335.2037" y="14.875"/><rect fill="url(#g2zlb41yc6hnd1)" height="28.7041" rx="3.5" ry="3.5" style="stroke:url(#g2zlb41yc6hnd1);stroke-width:0.875;" width="216.2335" x="335.2037" y="14.875"/><rect fill="url(#g2zlb41yc6hnd1)" height="3.5" style="stroke:url(#g2zlb41yc6hnd1);stroke-width:0.875;" width="216.2335" x="335.2037" y="40.0791"/><rect fill="none" height="142.4746" rx="3.5" ry="3.5" style="stroke:#304D6D;stroke-width:0.875;" width="216.2335" x="335.2037" y="14.875"/><ellipse cx="412.5133" cy="29.2271" fill="#B8B8B8" rx="8.75" ry="8.75" style="stroke:#6B6B6B;stroke-width:0.875;"/><path d="M414.1129,32.9458 Q413.7574,33.1235 413.3609,33.2192 Q412.9645,33.3149 412.5406,33.3149 Q410.982,33.3149 410.1617,32.3032 Q409.3551,31.2778 409.3551,29.3501 Q409.3551,27.4087 410.1617,26.397 Q410.982,25.3716 412.5406,25.3716 Q412.9645,25.3716 413.3609,25.4673 Q413.7711,25.5493 414.1129,25.7407 L414.1129,27.4224 Q413.7301,27.0669 413.3609,26.9028 Q412.9918,26.7251 412.609,26.7251 Q411.775,26.7251 411.3512,27.395 Q410.9274,28.0513 410.9274,29.3501 Q410.9274,30.6353 411.3512,31.2915 Q411.775,31.9478 412.609,31.9478 Q412.9918,31.9478 413.3609,31.7837 Q413.7301,31.6196 414.1129,31.2642 L414.1129,32.9458 Z " fill="#FFFFFF"/><text fill="#EEEEEE" font-family="'Verdana'" font-size="9.625" lengthAdjust="spacing" textLength="45.8644" x="433.5133" y="32.5591">GasCloud</text><line style="stroke:#304D6D;stroke-width:0.875;" x1="336.0787" x2="550.5623" y1="43.5791" y2="43.5791"/><text fill="#EEEEEE" font-family="'Verdana'" font-size="9.625" lengthAdjust="spacing" textLength="196.9835" x="344.8287" y="60.3882">-temperature_model: TemperatureModel</text><text fill="#EEEEEE" font-family="'Verdana'" font-size="9.625" lengthAdjust="spacing" textLength="68.7755" x="344.8287" y="80.3423">+temperature</text><text fill="#EEEEEE" font-family="'Verdana'" font-size="9.625" lengthAdjust="spacing" textLength="47.3636" x="344.8287" y="100.2964">-structure</text><line style="stroke:#304D6D;stroke-width:0.875;" x1="336.0787" x2="550.5623" y1="110.4414" y2="110.4414"/><text fill="#EEEEEE" font-family="'Verdana'" font-size="9.625" lengthAdjust="spacing" textLength="163.4981" x="344.8287" y="127.2505">+calculate_temperature(photons)</text><text fill="#EEEEEE" font-family="'Verdana'" font-size="9.625" lengthAdjust="spacing" textLength="107.8019" x="344.8287" y="147.2047">+calculate_structure()</text></g><!--reverse link TemperatureModel to MatthewsModel--><g class="link" data-entity-1="ent0002" data-entity-2="ent0003" data-link-type="extension" data-source-line="34" id="lnk9"><path codeLine="34" d="M274.383,301.629 C241.0017,317.9565 214.2438,331.0475 180.845,347.3837" fill="none" id="TemperatureModel-backto-MatthewsModel" style="stroke:#446E9B;stroke-width:2.625;"/><polygon fill="none" points="288.5313,294.7088,272.0763,296.9129,276.6897,306.3451,288.5313,294.7088" style="stroke:#446E9B;stroke-width:2.625;"/></g><!--reverse link TemperatureModel to SimsModel--><g class="link" data-entity-1="ent0002" data-entity-2="ent0004" data-link-type="extension" data-source-line="35" id="lnk10"><path codeLine="35" d="M352.5138,310.3059 C352.89,326.7034 352.9838,331.0913 353.36,347.5063" fill="none" id="TemperatureModel-backto-SimsModel" style="stroke:#446E9B;stroke-width:2.625;"/><polygon fill="none" points="352.1525,294.56,347.2652,310.4263,357.7624,310.1854,352.1525,294.56" style="stroke:#446E9B;stroke-width:2.625;"/></g><!--reverse link PhotonSource to BlackHole--><g class="link" data-entity-1="ent0005" data-entity-2="ent0006" data-link-type="extension" data-source-line="36" id="lnk11"><path codeLine="36" d="M535.0075,310.3059 C534.6312,326.7034 534.5288,331.0913 534.1525,347.5063" fill="none" id="PhotonSource-backto-BlackHole" style="stroke:#446E9B;stroke-width:2.625;"/><polygon fill="none" points="535.3688,294.56,529.7588,310.1854,540.2561,310.4263,535.3688,294.56" style="stroke:#446E9B;stroke-width:2.625;"/></g><!--reverse link PhotonSource to WhiteDwarf--><g class="link" data-entity-1="ent0005" data-entity-2="ent0007" data-link-type="extension" data-source-line="37" id="lnk12"><path codeLine="37" d="M578.2134,305.6377 C594.7859,322.0352 603.9513,331.0913 620.5325,347.5063" fill="none" id="PhotonSource-backto-WhiteDwarf" style="stroke:#446E9B;stroke-width:2.625;"/><polygon fill="none" points="567.0175,294.56,574.5208,309.3696,581.9059,301.9057,567.0175,294.56" style="stroke:#446E9B;stroke-width:2.625;"/></g><!--reverse link GasCloud to TemperatureModel--><g class="link" data-entity-1="ent0008" data-entity-2="ent0002" data-link-type="composition" data-source-line="39" id="lnk13"><path codeLine="39" d="M401.3411,167.0433 C387.8924,192.6808 378.2713,211.0238 367.57,231.4288" fill="none" id="GasCloud-backto-TemperatureModel" style="stroke:#446E9B;stroke-width:2.625;"/><polygon fill="#446E9B" points="406.2188,157.745,400.6805,160.7683,401.3411,167.0433,406.8794,164.02,406.2188,157.745" style="stroke:#446E9B;stroke-width:2.625;"/><text fill="#446E9B" font-family="'Verdana'" font-size="10.5" lengthAdjust="spacing" textLength="28.7827" x="397.8187" y="198.5976">has-a</text></g><!--link GasCloud to PhotonSource--><g class="link" data-entity-1="ent0008" data-entity-2="ent0005" data-link-type="dependency" data-source-line="40" id="lnk14"><path codeLine="40" d="M480.7775,157.745 C494.3488,183.3825 506.532,206.3834 517.3295,226.7884" fill="none" id="GasCloud-to-PhotonSource" style="stroke:#446E9B;stroke-width:2.625;stroke-dasharray:6.125,6.125;"/><polygon fill="#446E9B" points="519.785,231.4288,519.1953,222.8312,517.7388,227.5618,513.0082,226.1052,519.785,231.4288" style="stroke:#446E9B;stroke-width:2.625;"/><text fill="#446E9B" font-family="'Verdana'" font-size="10.5" lengthAdjust="spacing" textLength="24.0557" x="508.9437" y="198.5976">uses</text></g><?plantuml-src bP5BQyCm48Jl-XKglQGFcnvCQKqff2bz70A5578CQsKRcyYMaLOOckQ_LxPJFshdaAFORqOxisSKOuhSv21GGiJCDiboq91o8S6OAP5E8aluBbIsIBwHttIGgTQgU54PpPHKcfy7mItUEmy1qe7-NS0OH8Oq2Ahj-2UcEMeWgt6krYZvZd6--uFs_Cf9XPL0kA8MdMp0NFCyLgGoSy7sh3QR0xdj2zCwdIHV9Edfql-1FghHGbajS11cWrdfWvFsqoS9OlkcP0sF4Siu8NmkG7-D80Vc5SnCAhkk2A-pxoej0uM3dakZ3bQgt9PM71v7mZUvUqGZh3SQdFJXn_Fwjpd2D0TWlHQhMTFJoAnjYB6cYKit67mJyXYC1otb-u_zauNS6ZI_?></g></svg>