<svg xmlns="http://www.w3.org/2000/svg" xmlns:xlink="http://www.w3.org/1999/xlink" contentStyleType="text/css" data-diagram-type="CLASS" height="320.8333px" preserveAspectRatio="none" style="width:393px;height:320px;" version="1.1" viewBox="0 0 393 320" width="393.75px" zoomAndPan="magnify"><?plantuml 1.2026.3beta6?><defs><linearGradient id="g3m5blbnda5ab0" x1="50%" x2="50%" y1="0%" y2="100%"><stop offset="0%" stop-color="#7C9AB9"/><stop offset="100%" stop-color="#304D6D"/></linearGradient><linearGradient id="g3m5blbnda5ab1" x1="50%" x2="50%" y1="0%" y2="100%"><stop offset="0%" stop-color="#7C9AB9"/><stop offset="100%" stop-color="#446E9B"/></linearGradient></defs><g><!--class Academic--><g class="entity" data-qualified-name="Academic" data-source-line="4" id="ent0002"><rect fill="url(#g3m5blbnda5ab0)" height="122.1029" rx="4.1667" ry="4.1667" style="stroke:#304D6D;stroke-width:1.0417;" width="121.8063" x="115.625" y="17.7083"/><rect fill="url(#g3m5blbnda5ab1)" height="34.1715" rx="4.1667" ry="4.1667" style="stroke:url(#g3m5blbnda5ab1);stroke-width:1.0417;" width="121.8063" x="115.625" y="17.7083"/><rect fill="url(#g3m5blbnda5ab1)" height="4.1667" style="stroke:url(#g3m5blbnda5ab1);stroke-width:1.0417;" width="121.8063" x="115.625" y="47.7132"/><rect fill="none" height="122.1029" rx="4.1667" ry="4.1667" style="stroke:#304D6D;stroke-width:1.0417;" width="121.8063" x="115.625" y="17.7083"/><ellipse cx="141.0136" cy="34.7941" fill="#4CBC5C" rx="10.4167" ry="10.4167" style="stroke:#32A243;stroke-width:1.0417;"/><path d="M140.6067,31.7505 L139.7604,35.4777 L141.4693,35.4777 L140.6067,31.7505 Z M139.5162,30.1066 L141.7135,30.1066 L144.1712,39.2212 L142.3645,39.2212 L141.8111,36.9751 L139.4023,36.9751 L138.8489,39.2212 L137.0423,39.2212 L139.5162,30.1066 Z " fill="#FFFFFF"/><text fill="#EEEEEE" font-family="'Verdana'" font-size="11.4583" font-style="italic" lengthAdjust="spacing" textLength="56.1279" x="162.1648" y="38.7609">Academic</text><line style="stroke:#304D6D;stroke-width:1.0417;" x1="116.6667" x2="236.3897" y1="51.8799" y2="51.8799"/><text fill="#EEEEEE" font-family="'Verdana'" font-size="11.4583" lengthAdjust="spacing" textLength="48.8993" x="127.0833" y="71.8908">+papers</text><line style="stroke:#304D6D;stroke-width:1.0417;" x1="116.6667" x2="236.3897" y1="83.9681" y2="83.9681"/><text fill="#EEEEEE" font-family="'Verdana'" font-size="11.4583" lengthAdjust="spacing" textLength="86.4075" x="127.0833" y="103.979">+write_paper()</text><text fill="#EEEEEE" font-family="'Verdana'" font-size="11.4583" font-style="italic" lengthAdjust="spacing" textLength="98.8897" x="127.0833" y="127.7339">+describe_duty()</text></g><!--class PhDStudent--><g class="entity" data-qualified-name="PhDStudent" data-source-line="10" id="ent0003"><rect fill="url(#g3m5blbnda5ab0)" height="74.5931" rx="4.1667" ry="4.1667" style="stroke:#304D6D;stroke-width:1.0417;" width="121.8063" x="17.7083" y="214.1875"/><rect fill="url(#g3m5blbnda5ab1)" height="34.1715" rx="4.1667" ry="4.1667" style="stroke:url(#g3m5blbnda5ab1);stroke-width:1.0417;" width="121.8063" x="17.7083" y="214.1875"/><rect fill="url(#g3m5blbnda5ab1)" height="4.1667" style="stroke:url(#g3m5blbnda5ab1);stroke-width:1.0417;" width="121.8063" x="17.7083" y="244.1924"/><rect fill="none" height="74.5931" rx="4.1667" ry="4.1667" style="stroke:#304D6D;stroke-width:1.0417;" width="121.8063" x="17.7083" y="214.1875"/><ellipse cx="37.7091" cy="231.2733" fill="#B8B8B8" rx="10.4167" ry="10.4167" style="stroke:#6B6B6B;stroke-width:1.0417;"/><path d="M39.6134,235.7004 Q39.1902,235.9119 38.7182,236.0259 Q38.2462,236.1398 37.7416,236.1398 Q35.8862,236.1398 34.9096,234.9354 Q33.9493,233.7147 33.9493,231.4198 Q33.9493,229.1086 34.9096,227.9041 Q35.8862,226.6834 37.7416,226.6834 Q38.2462,226.6834 38.7182,226.7974 Q39.2065,226.895 39.6134,227.1229 L39.6134,229.1248 Q39.1576,228.7017 38.7182,228.5063 Q38.2787,228.2948 37.823,228.2948 Q36.8302,228.2948 36.3256,229.0923 Q35.8211,229.8735 35.8211,231.4198 Q35.8211,232.9497 36.3256,233.731 Q36.8302,234.5122 37.823,234.5122 Q38.2787,234.5122 38.7182,234.3169 Q39.1576,234.1216 39.6134,233.6984 L39.6134,235.7004 Z " fill="#FFFFFF"/><text fill="#EEEEEE" font-family="'Verdana'" font-size="11.4583" lengthAdjust="spacing" textLength="68.101" x="57.6629" y="235.2401">PhDStudent</text><line style="stroke:#304D6D;stroke-width:1.0417;" x1="18.75" x2="138.473" y1="248.359" y2="248.359"/><line style="stroke:#304D6D;stroke-width:1.0417;" x1="18.75" x2="138.473" y1="256.6924" y2="256.6924"/><text fill="#EEEEEE" font-family="'Verdana'" font-size="11.4583" lengthAdjust="spacing" textLength="98.8897" x="29.1667" y="276.7033">+describe_duty()</text></g><!--class ResearchSoftwareEngineer--><g class="entity" data-qualified-name="ResearchSoftwareEngineer" data-source-line="14" id="ent0004"><rect fill="url(#g3m5blbnda5ab0)" height="98.348" rx="4.1667" ry="4.1667" style="stroke:#304D6D;stroke-width:1.0417;" width="196.9864" x="175.9479" y="202.3125"/><rect fill="url(#g3m5blbnda5ab1)" height="34.1715" rx="4.1667" ry="4.1667" style="stroke:url(#g3m5blbnda5ab1);stroke-width:1.0417;" width="196.9864" x="175.9479" y="202.3125"/><rect fill="url(#g3m5blbnda5ab1)" height="4.1667" style="stroke:url(#g3m5blbnda5ab1);stroke-width:1.0417;" width="196.9864" x="175.9479" y="232.3174"/><rect fill="none" height="98.348" rx="4.1667" ry="4.1667" style="stroke:#304D6D;stroke-width:1.0417;" width="196.9864" x="175.9479" y="202.3125"/><ellipse cx="190.5313" cy="219.3983" fill="#B8B8B8" rx="10.4167" ry="10.4167" style="stroke:#6B6B6B;stroke-width:1.0417;"/><path d="M192.4355,223.8254 Q192.0124,224.0369 191.5404,224.1509 Q191.0684,224.2648 190.5638,224.2648 Q188.7083,224.2648 187.7318,223.0604 Q186.7715,221.8397 186.7715,219.5448 Q186.7715,217.2336 187.7318,216.0291 Q188.7083,214.8084 190.5638,214.8084 Q191.0684,214.8084 191.5404,214.9224 Q192.0286,215.02 192.4355,215.2479 L192.4355,217.2498 Q191.9798,216.8267 191.5404,216.6313 Q191.1009,216.4198 190.6452,216.4198 Q189.6523,216.4198 189.1478,217.2173 Q188.6432,217.9985 188.6432,219.5448 Q188.6432,221.0747 189.1478,221.856 Q189.6523,222.6372 190.6452,222.6372 Q191.1009,222.6372 191.5404,222.4419 Q191.9798,222.2466 192.4355,221.8234 L192.4355,223.8254 Z " fill="#FFFFFF"/><text fill="#EEEEEE" font-family="'Verdana'" font-size="11.4583" lengthAdjust="spacing" textLength="155.3197" x="209.2813" y="223.3651">ResearchSoftwareEngineer</text><line style="stroke:#304D6D;stroke-width:1.0417;" x1="176.9896" x2="371.8926" y1="236.484" y2="236.484"/><line style="stroke:#304D6D;stroke-width:1.0417;" x1="176.9896" x2="371.8926" y1="244.8174" y2="244.8174"/><text fill="#EEEEEE" font-family="'Verdana'" font-size="11.4583" lengthAdjust="spacing" textLength="86.4075" x="187.4063" y="264.8283">+write_paper()</text><text fill="#EEEEEE" font-family="'Verdana'" font-size="11.4583" lengthAdjust="spacing" textLength="98.8897" x="187.4063" y="288.5832">+describe_duty()</text></g><!--reverse link Academic to PhDStudent--><g class="link" data-entity-1="ent0002" data-entity-2="ent0003" data-link-type="extension" data-source-line="19" id="lnk5"><path codeLine="19" d="M132.6784,156.221 C118.47,180.9814 111.8125,192.5729 99.4479,214.125" fill="none" id="Academic-backto-PhDStudent" style="stroke:#446E9B;stroke-width:3.125;"/><polygon fill="none" points="142.0104,139.9583,127.2575,153.1103,138.0993,159.3317,142.0104,139.9583" style="stroke:#446E9B;stroke-width:3.125;"/></g><!--reverse link Academic to ResearchSoftwareEngineer--><g class="link" data-entity-1="ent0002" data-entity-2="ent0004" data-link-type="extension" data-source-line="20" id="lnk6"><path codeLine="20" d="M220.3798,156.2235 C232.0465,176.5673 235.5938,182.7396 246.6771,202.0521" fill="none" id="Academic-backto-ResearchSoftwareEngineer" style="stroke:#446E9B;stroke-width:3.125;"/><polygon fill="none" points="211.0521,139.9583,214.9581,159.3328,225.8015,153.1143,211.0521,139.9583" style="stroke:#446E9B;stroke-width:3.125;"/></g><?plantuml-src TOv12i9034NtSufnfvI21t1Jq8KxiGSeQIRQmNOwJ5AArjxTwg18qLsI___xMKX53MdsW5H3gVXYdOS0ZSOQc3EHOCjEQ8-jo-sDz5efA5a2e4IBpX0CDHRreBHEF7WA_9pwO8MArxvSJOVXdHjrOeXn0bDXEhbEwgXKX1sgRIwT8ISHzzTu92O8MENjINe8j7DdwuX2ZCsxVt4-Vs_kQVfLF1F-5Jq0?></g></svg>